<svg width="195" height="187" viewBox="0 0 195 187" fill="none" xmlns="http://www.w3.org/2000/svg">
<path opacity="0.3" d="M182.825 126.301C163.805 170.265 113.599 189.15 74.2613 185.93C63.5205 185.051 41.9099 183.282 25.036 167.501C-7.36887 137.196 -2.37838 73.85 28.6426 36.5555C32.638 31.7522 60.2897 -0.426392 103.379 0.00428343C134.928 0.319746 157.07 17.9438 159.763 20.139C163.164 22.9124 170.666 29.5035 177.427 39.9597C193.314 64.5288 194.711 98.8265 182.825 126.301Z" fill="white"/>
<path d="M192.201 174.742H2.4839C2.31314 174.742 2.17529 174.604 2.17529 174.434V152.988C2.17529 152.818 2.31314 152.68 2.4839 152.68H192.201C192.371 152.68 192.509 152.818 192.509 152.988V174.434C192.509 174.604 192.371 174.742 192.201 174.742Z" fill="url(#paint0_linear_126_9291)"/>
<path d="M194.482 177.912H0.518456C0.232482 177.912 0 177.681 0 177.394V169.255C0 168.969 0.231797 168.737 0.518456 168.737H194.482C194.768 168.737 195 168.968 195 169.255V177.394C195 177.681 194.768 177.912 194.482 177.912Z" fill="url(#paint1_linear_126_9291)"/>
<path d="M186.98 68.5174H6.66298C3.95274 68.5174 3.24158 64.771 5.76391 63.7779L95.9225 28.2801C96.5006 28.0525 97.1432 28.0525 97.7214 28.2801L187.88 63.7786C190.402 64.7717 189.69 68.5174 186.98 68.5174Z" fill="url(#paint2_linear_126_9291)"/>
<path d="M16.4917 73.769H12.6252V144.915H16.4917V73.769Z" fill="url(#paint3_linear_126_9291)"/>
<path d="M22.2914 73.769H18.4249V144.915H22.2914V73.769Z" fill="url(#paint4_linear_126_9291)"/>
<path d="M28.0917 73.769H24.2252V144.915H28.0917V73.769Z" fill="url(#paint5_linear_126_9291)"/>
<path d="M32.3456 69.9023H8.37244V70.9434L11.8521 72.6092H28.8652L32.3456 70.9434V69.9023Z" fill="url(#paint6_linear_126_9291)"/>
<path d="M32.5388 151.101H8.56567V147.353L12.0454 145.687H29.0584L32.5388 147.353V151.101Z" fill="url(#paint7_linear_126_9291)"/>
<path d="M47.039 73.769H43.1725V144.915H47.039V73.769Z" fill="url(#paint8_linear_126_9291)"/>
<path d="M52.8386 73.769H48.9722V144.915H52.8386V73.769Z" fill="url(#paint9_linear_126_9291)"/>
<path d="M58.6386 73.769H54.7721V144.915H58.6386V73.769Z" fill="url(#paint10_linear_126_9291)"/>
<path d="M62.8922 69.9023H38.9191V70.9434L42.3988 72.6092H59.4118L62.8922 70.9434V69.9023Z" fill="url(#paint11_linear_126_9291)"/>
<path d="M63.0858 151.101H39.1127V147.353L42.5924 145.687H59.6054L63.0858 147.353V151.101Z" fill="url(#paint12_linear_126_9291)"/>
<path d="M77.5847 73.769H73.7183V144.915H77.5847V73.769Z" fill="url(#paint13_linear_126_9291)"/>
<path d="M83.3844 73.769H79.5179V144.915H83.3844V73.769Z" fill="url(#paint14_linear_126_9291)"/>
<path d="M89.184 73.769H85.3175V144.915H89.184V73.769Z" fill="url(#paint15_linear_126_9291)"/>
<path d="M93.4385 69.9023H69.4653V70.9434L72.945 72.6092H89.9581L93.4385 70.9434V69.9023Z" fill="url(#paint16_linear_126_9291)"/>
<path d="M93.631 151.101H69.6586V147.353L73.1383 145.687H90.1513L93.631 147.353V151.101Z" fill="url(#paint17_linear_126_9291)"/>
<path d="M108.132 73.769H104.265V144.915H108.132V73.769Z" fill="url(#paint18_linear_126_9291)"/>
<path d="M113.931 73.769H110.065V144.915H113.931V73.769Z" fill="url(#paint19_linear_126_9291)"/>
<path d="M119.731 73.769H115.865V144.915H119.731V73.769Z" fill="url(#paint20_linear_126_9291)"/>
<path d="M123.984 69.9023H100.011V70.9434L103.491 72.6092H120.504L123.984 70.9434V69.9023Z" fill="url(#paint21_linear_126_9291)"/>
<path d="M124.178 151.101H100.205V147.353L103.685 145.687H120.698L124.178 147.353V151.101Z" fill="url(#paint22_linear_126_9291)"/>
<path d="M138.677 73.769H134.811V144.915H138.677V73.769Z" fill="url(#paint23_linear_126_9291)"/>
<path d="M144.478 73.769H140.611V144.915H144.478V73.769Z" fill="url(#paint24_linear_126_9291)"/>
<path d="M150.277 73.769H146.411V144.915H150.277V73.769Z" fill="url(#paint25_linear_126_9291)"/>
<path d="M154.531 69.9023H130.558V70.9434L134.038 72.6092H151.051L154.531 70.9434V69.9023Z" fill="url(#paint26_linear_126_9291)"/>
<path d="M154.724 151.101H130.751V147.353L134.231 145.687H151.245L154.724 147.353V151.101Z" fill="url(#paint27_linear_126_9291)"/>
<path d="M169.224 73.769H165.357V144.915H169.224V73.769Z" fill="url(#paint28_linear_126_9291)"/>
<path d="M175.024 73.769H171.158V144.915H175.024V73.769Z" fill="url(#paint29_linear_126_9291)"/>
<path d="M180.824 73.769H176.957V144.915H180.824V73.769Z" fill="url(#paint30_linear_126_9291)"/>
<path d="M185.077 69.9023H161.104V70.9434L164.584 72.6092H181.597L185.077 70.9434V69.9023Z" fill="url(#paint31_linear_126_9291)"/>
<path d="M185.271 151.101H161.297V147.353L164.778 145.687H181.791L185.271 147.353V151.101Z" fill="url(#paint32_linear_126_9291)"/>
<path d="M192.454 156.85H2.39945C2.27464 156.85 2.17383 156.75 2.17383 156.625V152.924C2.17383 152.8 2.27464 152.699 2.39945 152.699H192.454C192.579 152.699 192.68 152.8 192.68 152.924V156.625C192.68 156.75 192.579 156.85 192.454 156.85Z" fill="url(#paint33_linear_126_9291)"/>
<path d="M69.717 43.5967H74.3818C76.2828 43.5967 77.6667 43.9656 78.5335 44.7035C79.4004 45.4415 79.8338 46.6148 79.8338 48.2237C79.8338 49.2826 79.6047 50.1686 79.146 50.8811C78.6872 51.5937 78.0624 52.0257 77.2703 52.1752V52.3C78.3038 52.5586 79.0499 53.0421 79.5087 53.7505C79.9668 54.4589 80.1966 55.4012 80.1966 56.5766C80.1966 58.2355 79.7529 59.5344 78.8648 60.4719C77.9767 61.4101 76.7615 61.8784 75.2198 61.8784H69.7177V43.5967H69.717ZM72.9183 50.9497H74.4812C75.1979 50.9497 75.7026 50.7584 75.9941 50.3743C76.2855 49.991 76.4316 49.4197 76.4316 48.6612C76.4316 47.9027 76.265 47.3589 75.9317 47.0291C75.5984 46.6999 75.0731 46.5353 74.3557 46.5353H72.9176V50.9497H72.9183ZM72.9183 53.7882V58.9028H74.6314C75.3398 58.9028 75.8672 58.6861 76.2135 58.2527C76.5592 57.8193 76.7327 57.1479 76.7327 56.2392C76.7327 54.605 76.0153 53.7882 74.582 53.7882H72.9183Z" fill="white"/>
<path d="M91.351 61.8799L90.3004 57.2652H85.5355L84.4849 61.8799H81.0834L85.6103 43.522H90.2249L94.7642 61.8799H91.351ZM89.6626 54.2518L88.6874 49.9999C88.6291 49.7414 88.4974 49.0933 88.2938 48.055C88.0894 47.0174 87.9666 46.3227 87.9248 45.973C87.8165 46.6903 87.6786 47.4797 87.512 48.3431C87.3453 49.2058 86.9119 51.1754 86.2117 54.2518H89.6626Z" fill="white"/>
<path d="M109.184 61.8791H105.032L99.3796 48.6359H99.217C99.4255 49.6447 99.5297 50.7282 99.5297 51.8872V61.8791H96.3785V43.5967H100.555L106.157 56.7021H106.295C106.137 55.827 106.058 54.7846 106.058 53.5756V43.5967H109.184V61.8791H109.184Z" fill="white"/>
<path d="M123.802 61.8791H120.176L117.175 54.0632L115.812 55.4265V61.8791H112.41V43.5967H115.812V52.6628L116.999 49.9245L120.114 43.5967H123.752L119.526 51.5127L123.802 61.8791Z" fill="white"/>
<defs>
<linearGradient id="paint0_linear_126_9291" x1="102.58" y1="58.4757" x2="94.0309" y2="230.241" gradientUnits="userSpaceOnUse">
<stop stop-color="#53D8FF"/>
<stop offset="1" stop-color="#3840F7"/>
</linearGradient>
<linearGradient id="paint1_linear_126_9291" x1="95.1925" y1="212.783" x2="102.467" y2="88.3862" gradientUnits="userSpaceOnUse">
<stop stop-color="#53D8FF"/>
<stop offset="1" stop-color="#3840F7"/>
</linearGradient>
<linearGradient id="paint2_linear_126_9291" x1="159.656" y1="-58.3331" x2="27.6278" y2="203.017" gradientUnits="userSpaceOnUse">
<stop stop-color="#53D8FF"/>
<stop offset="1" stop-color="#3840F7"/>
</linearGradient>
<linearGradient id="paint3_linear_126_9291" x1="111.542" y1="-82.6373" x2="-20.486" y2="178.713" gradientUnits="userSpaceOnUse">
<stop stop-color="#53D8FF"/>
<stop offset="1" stop-color="#3840F7"/>
</linearGradient>
<linearGradient id="paint4_linear_126_9291" x1="116.163" y1="-80.3031" x2="-15.8653" y2="181.047" gradientUnits="userSpaceOnUse">
<stop stop-color="#53D8FF"/>
<stop offset="1" stop-color="#3840F7"/>
</linearGradient>
<linearGradient id="paint5_linear_126_9291" x1="120.783" y1="-77.9689" x2="-11.2446" y2="183.381" gradientUnits="userSpaceOnUse">
<stop stop-color="#53D8FF"/>
<stop offset="1" stop-color="#3840F7"/>
</linearGradient>
<linearGradient id="paint6_linear_126_9291" x1="100.499" y1="-88.2155" x2="-31.5285" y2="173.135" gradientUnits="userSpaceOnUse">
<stop stop-color="#53D8FF"/>
<stop offset="1" stop-color="#3840F7"/>
</linearGradient>
<linearGradient id="paint7_linear_126_9291" x1="132.369" y1="-72.1167" x2="0.340997" y2="189.234" gradientUnits="userSpaceOnUse">
<stop stop-color="#53D8FF"/>
<stop offset="1" stop-color="#3840F7"/>
</linearGradient>
<linearGradient id="paint8_linear_126_9291" x1="135.878" y1="-70.3434" x2="3.85026" y2="191.007" gradientUnits="userSpaceOnUse">
<stop stop-color="#53D8FF"/>
<stop offset="1" stop-color="#3840F7"/>
</linearGradient>
<linearGradient id="paint9_linear_126_9291" x1="140.499" y1="-68.0092" x2="8.47139" y2="193.341" gradientUnits="userSpaceOnUse">
<stop stop-color="#53D8FF"/>
<stop offset="1" stop-color="#3840F7"/>
</linearGradient>
<linearGradient id="paint10_linear_126_9291" x1="145.12" y1="-65.6745" x2="13.0921" y2="195.676" gradientUnits="userSpaceOnUse">
<stop stop-color="#53D8FF"/>
<stop offset="1" stop-color="#3840F7"/>
</linearGradient>
<linearGradient id="paint11_linear_126_9291" x1="124.835" y1="-75.9221" x2="-7.19235" y2="185.428" gradientUnits="userSpaceOnUse">
<stop stop-color="#53D8FF"/>
<stop offset="1" stop-color="#3840F7"/>
</linearGradient>
<linearGradient id="paint12_linear_126_9291" x1="156.706" y1="-59.8238" x2="24.6779" y2="201.527" gradientUnits="userSpaceOnUse">
<stop stop-color="#53D8FF"/>
<stop offset="1" stop-color="#3840F7"/>
</linearGradient>
<linearGradient id="paint13_linear_126_9291" x1="160.214" y1="-58.0496" x2="28.1857" y2="203.301" gradientUnits="userSpaceOnUse">
<stop stop-color="#53D8FF"/>
<stop offset="1" stop-color="#3840F7"/>
</linearGradient>
<linearGradient id="paint14_linear_126_9291" x1="164.834" y1="-55.7155" x2="32.8065" y2="205.635" gradientUnits="userSpaceOnUse">
<stop stop-color="#53D8FF"/>
<stop offset="1" stop-color="#3840F7"/>
</linearGradient>
<linearGradient id="paint15_linear_126_9291" x1="169.455" y1="-53.3807" x2="37.4268" y2="207.97" gradientUnits="userSpaceOnUse">
<stop stop-color="#53D8FF"/>
<stop offset="1" stop-color="#3840F7"/>
</linearGradient>
<linearGradient id="paint16_linear_126_9291" x1="149.171" y1="-63.6286" x2="17.1435" y2="197.722" gradientUnits="userSpaceOnUse">
<stop stop-color="#53D8FF"/>
<stop offset="1" stop-color="#3840F7"/>
</linearGradient>
<linearGradient id="paint17_linear_126_9291" x1="181.041" y1="-47.5295" x2="49.013" y2="213.821" gradientUnits="userSpaceOnUse">
<stop stop-color="#53D8FF"/>
<stop offset="1" stop-color="#3840F7"/>
</linearGradient>
<linearGradient id="paint18_linear_126_9291" x1="184.55" y1="-45.7557" x2="52.5221" y2="215.595" gradientUnits="userSpaceOnUse">
<stop stop-color="#53D8FF"/>
<stop offset="1" stop-color="#3840F7"/>
</linearGradient>
<linearGradient id="paint19_linear_126_9291" x1="189.171" y1="-43.4216" x2="57.1432" y2="217.929" gradientUnits="userSpaceOnUse">
<stop stop-color="#53D8FF"/>
<stop offset="1" stop-color="#3840F7"/>
</linearGradient>
<linearGradient id="paint20_linear_126_9291" x1="193.791" y1="-41.0868" x2="61.7629" y2="220.263" gradientUnits="userSpaceOnUse">
<stop stop-color="#53D8FF"/>
<stop offset="1" stop-color="#3840F7"/>
</linearGradient>
<linearGradient id="paint21_linear_126_9291" x1="173.507" y1="-51.3341" x2="41.4788" y2="210.016" gradientUnits="userSpaceOnUse">
<stop stop-color="#53D8FF"/>
<stop offset="1" stop-color="#3840F7"/>
</linearGradient>
<linearGradient id="paint22_linear_126_9291" x1="205.377" y1="-35.2354" x2="73.3489" y2="226.115" gradientUnits="userSpaceOnUse">
<stop stop-color="#53D8FF"/>
<stop offset="1" stop-color="#3840F7"/>
</linearGradient>
<linearGradient id="paint23_linear_126_9291" x1="208.885" y1="-33.4619" x2="76.8573" y2="227.888" gradientUnits="userSpaceOnUse">
<stop stop-color="#53D8FF"/>
<stop offset="1" stop-color="#3840F7"/>
</linearGradient>
<linearGradient id="paint24_linear_126_9291" x1="213.507" y1="-31.1278" x2="81.4787" y2="230.223" gradientUnits="userSpaceOnUse">
<stop stop-color="#53D8FF"/>
<stop offset="1" stop-color="#3840F7"/>
</linearGradient>
<linearGradient id="paint25_linear_126_9291" x1="218.127" y1="-28.793" x2="86.0991" y2="232.558" gradientUnits="userSpaceOnUse">
<stop stop-color="#53D8FF"/>
<stop offset="1" stop-color="#3840F7"/>
</linearGradient>
<linearGradient id="paint26_linear_126_9291" x1="197.843" y1="-39.0405" x2="65.8153" y2="222.31" gradientUnits="userSpaceOnUse">
<stop stop-color="#53D8FF"/>
<stop offset="1" stop-color="#3840F7"/>
</linearGradient>
<linearGradient id="paint27_linear_126_9291" x1="229.713" y1="-22.9411" x2="97.6845" y2="238.409" gradientUnits="userSpaceOnUse">
<stop stop-color="#53D8FF"/>
<stop offset="1" stop-color="#3840F7"/>
</linearGradient>
<linearGradient id="paint28_linear_126_9291" x1="233.222" y1="-21.168" x2="101.194" y2="240.183" gradientUnits="userSpaceOnUse">
<stop stop-color="#53D8FF"/>
<stop offset="1" stop-color="#3840F7"/>
</linearGradient>
<linearGradient id="paint29_linear_126_9291" x1="237.842" y1="-18.8339" x2="105.814" y2="242.516" gradientUnits="userSpaceOnUse">
<stop stop-color="#53D8FF"/>
<stop offset="1" stop-color="#3840F7"/>
</linearGradient>
<linearGradient id="paint30_linear_126_9291" x1="242.463" y1="-16.4992" x2="110.435" y2="244.851" gradientUnits="userSpaceOnUse">
<stop stop-color="#53D8FF"/>
<stop offset="1" stop-color="#3840F7"/>
</linearGradient>
<linearGradient id="paint31_linear_126_9291" x1="222.178" y1="-26.7466" x2="90.1506" y2="234.604" gradientUnits="userSpaceOnUse">
<stop stop-color="#53D8FF"/>
<stop offset="1" stop-color="#3840F7"/>
</linearGradient>
<linearGradient id="paint32_linear_126_9291" x1="254.049" y1="-10.6483" x2="122.021" y2="250.702" gradientUnits="userSpaceOnUse">
<stop stop-color="#53D8FF"/>
<stop offset="1" stop-color="#3840F7"/>
</linearGradient>
<linearGradient id="paint33_linear_126_9291" x1="96.0101" y1="-38.3784" x2="97.6365" y2="183.324" gradientUnits="userSpaceOnUse">
<stop stop-color="#53D8FF"/>
<stop offset="1" stop-color="#3840F7"/>
</linearGradient>
</defs>
</svg>
