<svg width="20" height="20" viewBox="0 0 20 20" fill="none" xmlns="http://www.w3.org/2000/svg">
<path d="M4.61494 8.19989C4.61394 7.48857 4.75368 6.78409 5.02611 6.12701C5.29854 5.46993 5.69827 4.87324 6.20229 4.37131C6.70632 3.86938 7.30466 3.47213 7.96287 3.20243C8.62107 2.93274 9.32613 2.79593 10.0374 2.79989C13.0074 2.82239 15.3849 5.28989 15.3849 8.26739V8.79989C15.3849 11.4849 15.9474 13.0449 16.4424 13.8999C16.495 13.9909 16.5227 14.0942 16.5228 14.1994C16.5229 14.3045 16.4954 14.4078 16.443 14.499C16.3906 14.5901 16.3151 14.6659 16.2242 14.7187C16.1333 14.7715 16.0301 14.7995 15.9249 14.7999H4.07494C3.96979 14.7995 3.8666 14.7715 3.77568 14.7187C3.68476 14.6659 3.60932 14.5901 3.55691 14.499C3.5045 14.4078 3.47696 14.3045 3.47705 14.1994C3.47714 14.0942 3.50487 13.9909 3.55744 13.8999C4.05244 13.0449 4.61494 11.4849 4.61494 8.79989V8.19989Z" stroke="white" stroke-width="1.6" stroke-linecap="round" stroke-linejoin="round"/>
<path d="M7.6001 14.7999V15.3999C7.6001 16.0364 7.85295 16.6469 8.30304 17.097C8.75313 17.5471 9.36358 17.7999 10.0001 17.7999C10.6366 17.7999 11.2471 17.5471 11.6972 17.097C12.1472 16.6469 12.4001 16.0364 12.4001 15.3999V14.7999" stroke="white" stroke-width="1.6" stroke-linecap="round" stroke-linejoin="round"/>
</svg>
