<svg width="10" height="10" viewBox="0 0 10 10" fill="none" xmlns="http://www.w3.org/2000/svg">
<path fill-rule="evenodd" clip-rule="evenodd" d="M5.00019 5.94308L1.47144 9.47183C1.43784 9.5032 1.4042 9.5326 1.36567 9.55787C1.28946 9.60787 1.20309 9.64191 1.11329 9.65741C1.07339 9.66427 1.06312 9.66394 1.02279 9.66671C1.00758 9.66671 0.992418 9.66671 0.97725 9.66671C0.936915 9.66394 0.926648 9.66427 0.886746 9.65741C0.81191 9.64451 0.73944 9.61874 0.673271 9.58154C0.620335 9.55177 0.571533 9.51477 0.528598 9.47183C0.398925 9.34216 0.327456 9.16089 0.333689 8.97764C0.335789 8.91694 0.34619 8.85661 0.364557 8.7987C0.387525 8.72637 0.422926 8.65806 0.468795 8.59756C0.493263 8.56529 0.500996 8.55853 0.528598 8.52899L4.05732 5.00024L0.528598 1.47149C0.500996 1.44192 0.493263 1.43519 0.468795 1.40289C0.422926 1.34242 0.387525 1.27411 0.364557 1.20174C0.336989 1.11487 0.327489 1.02254 0.336823 0.931866C0.36039 0.702457 0.505397 0.497014 0.713672 0.397977C0.768508 0.371909 0.826877 0.353375 0.886746 0.343041C0.96155 0.330174 1.03849 0.330174 1.11329 0.343041C1.21809 0.361142 1.3181 0.404544 1.40284 0.468847C1.43514 0.493314 1.44187 0.501048 1.47144 0.528649L5.00019 4.05737L8.52894 0.528649C8.55848 0.501048 8.56524 0.493314 8.59751 0.468847C8.65801 0.422978 8.72632 0.387576 8.79865 0.364609C8.88552 0.337041 8.97789 0.32754 9.06853 0.336874C9.14403 0.344608 9.21814 0.365375 9.28667 0.397977C9.34151 0.424045 9.39274 0.457646 9.43851 0.497548C9.61232 0.649121 9.69652 0.886064 9.65736 1.11334C9.63929 1.21815 9.59585 1.31815 9.53158 1.40289C9.50712 1.43519 9.49938 1.44192 9.47178 1.47149L5.94303 5.00024L9.47178 8.52899C9.49938 8.55853 9.50712 8.56529 9.53158 8.59756C9.57745 8.65806 9.61285 8.72637 9.63582 8.7987C9.65419 8.85661 9.66459 8.91694 9.66666 8.97764C9.67292 9.16089 9.60142 9.34216 9.47178 9.47183C9.42885 9.51477 9.38004 9.55177 9.32711 9.58154C9.26094 9.61874 9.18844 9.64451 9.11363 9.65741C9.07373 9.66427 9.06346 9.66394 9.02313 9.66671C9.00793 9.66671 8.99276 9.66671 8.97759 9.66671C8.93726 9.66394 8.92699 9.66427 8.88709 9.65741C8.79729 9.64191 8.71092 9.60787 8.63471 9.55787C8.59614 9.5326 8.56251 9.5032 8.52894 9.47183L5.00019 5.94308Z" fill="white"/>
</svg>
