<svg width="21" height="18" viewBox="0 0 21 18" fill="none" xmlns="http://www.w3.org/2000/svg">
<path d="M14.8182 16.5455V14.8182C14.8182 13.902 14.4542 13.0233 13.8064 12.3755C13.1585 11.7276 12.2798 11.3636 11.3636 11.3636H4.45455C3.53834 11.3636 2.65967 11.7276 2.01181 12.3755C1.36396 13.0233 1 13.902 1 14.8182V16.5455" stroke="#B1B1B1" stroke-width="1.72727" stroke-linecap="round" stroke-linejoin="round"/>
<path d="M7.90914 7.90909C9.81703 7.90909 11.3637 6.36244 11.3637 4.45455C11.3637 2.54665 9.81703 1 7.90914 1C6.00124 1 4.45459 2.54665 4.45459 4.45455C4.45459 6.36244 6.00124 7.90909 7.90914 7.90909Z" stroke="#B1B1B1" stroke-width="1.72727" stroke-linecap="round" stroke-linejoin="round"/>
<path d="M20 16.5454V14.8182C19.9994 14.0527 19.7446 13.3092 19.2757 12.7043C18.8067 12.0993 18.1502 11.6672 17.4091 11.4759" stroke="#B1B1B1" stroke-width="1.72727" stroke-linecap="round" stroke-linejoin="round"/>
<path d="M13.9546 1.1123C14.6977 1.30256 15.3563 1.73473 15.8266 2.34066C16.297 2.9466 16.5523 3.69184 16.5523 4.4589C16.5523 5.22595 16.297 5.97119 15.8266 6.57713C15.3563 7.18306 14.6977 7.61523 13.9546 7.80549" stroke="#B1B1B1" stroke-width="1.72727" stroke-linecap="round" stroke-linejoin="round"/>
</svg>
