<svg width="20" height="11" viewBox="0 0 20 11" fill="none" xmlns="http://www.w3.org/2000/svg">
<path d="M10.4667 0C4.58358 0 0.966675 5.18182 0.966675 5.18182C0.966675 5.18182 4.58358 10.3636 10.4667 10.3636C16.3498 10.3636 19.9667 5.18182 19.9667 5.18182C19.9667 5.18182 16.3498 0 10.4667 0ZM10.4667 8.63636C7.06136 8.63636 4.48513 6.49109 3.23027 5.18182C4.12845 4.24477 5.70199 2.88714 7.76781 2.18586C7.28132 2.79033 7.01484 3.54226 7.01213 4.31818C7.01213 5.23438 7.37609 6.11306 8.02394 6.76091C8.6718 7.40877 9.55047 7.77273 10.4667 7.77273C11.3829 7.77273 12.2616 7.40877 12.9094 6.76091C13.5573 6.11306 13.9212 5.23438 13.9212 4.31818C13.9185 3.54226 13.652 2.79033 13.1655 2.18586C15.2322 2.88714 16.8066 4.24564 17.7031 5.18182C16.4465 6.49282 13.8711 8.63636 10.4667 8.63636Z" fill="white"/>
</svg>
