<svg width="25" height="24" viewBox="0 0 25 24" fill="none" xmlns="http://www.w3.org/2000/svg">
<path d="M7.25 10.5C9.11396 10.5 10.625 8.98896 10.625 7.125C10.625 5.26104 9.11396 3.75 7.25 3.75C5.38604 3.75 3.875 5.26104 3.875 7.125C3.875 8.98896 5.38604 10.5 7.25 10.5Z" stroke="#F87777" stroke-width="2" stroke-linecap="round" stroke-linejoin="round"/>
<path d="M17 10.5C18.864 10.5 20.375 8.98896 20.375 7.125C20.375 5.26104 18.864 3.75 17 3.75C15.136 3.75 13.625 5.26104 13.625 7.125C13.625 8.98896 15.136 10.5 17 10.5Z" stroke="#F87777" stroke-width="2" stroke-linecap="round" stroke-linejoin="round"/>
<path d="M7.25 20.25C9.11396 20.25 10.625 18.739 10.625 16.875C10.625 15.011 9.11396 13.5 7.25 13.5C5.38604 13.5 3.875 15.011 3.875 16.875C3.875 18.739 5.38604 20.25 7.25 20.25Z" stroke="#F87777" stroke-width="2" stroke-linecap="round" stroke-linejoin="round"/>
<path d="M17 20.25C18.864 20.25 20.375 18.739 20.375 16.875C20.375 15.011 18.864 13.5 17 13.5C15.136 13.5 13.625 15.011 13.625 16.875C13.625 18.739 15.136 20.25 17 20.25Z" stroke="#F87777" stroke-width="2" stroke-linecap="round" stroke-linejoin="round"/>
</svg>
