<svg width="25" height="24" viewBox="0 0 25 24" fill="none" xmlns="http://www.w3.org/2000/svg">
<path d="M14.625 10.125H17.625" stroke="#5A7BEF" stroke-width="2" stroke-linecap="round" stroke-linejoin="round"/>
<path d="M7.125 10.125H10.125" stroke="#5A7BEF" stroke-width="2" stroke-linecap="round" stroke-linejoin="round"/>
<path d="M8.625 8.625V11.625" stroke="#5A7BEF" stroke-width="2" stroke-linecap="round" stroke-linejoin="round"/>
<path d="M16.5 5.22186L8.25005 5.24999C7.10418 5.25217 5.99555 5.65714 5.11809 6.39408C4.24063 7.13101 3.65018 8.15298 3.45004 9.28124V9.28124L1.91254 17.1656C1.81382 17.7162 1.89356 18.2839 2.14014 18.786C2.38671 19.2881 2.78722 19.6983 3.28328 19.9568C3.77934 20.2153 4.345 20.3086 4.89778 20.223C5.45057 20.1375 5.96157 19.8776 6.35629 19.4812V19.4812L10.4063 15L16.5 14.9719C17.793 14.9719 19.0329 14.4582 19.9472 13.544C20.8614 12.6298 21.375 11.3898 21.375 10.0969C21.375 8.80393 20.8614 7.56396 19.9472 6.64972C19.0329 5.73548 17.793 5.22186 16.5 5.22186V5.22186Z" stroke="#5A7BEF" stroke-width="2" stroke-linecap="round" stroke-linejoin="round"/>
<path d="M21.3 9.25311L22.8375 17.1656C22.9362 17.7162 22.8565 18.2839 22.6099 18.786C22.3633 19.2881 21.9628 19.6983 21.4668 19.9568C20.9707 20.2153 20.405 20.3086 19.8523 20.223C19.2995 20.1375 18.7885 19.8776 18.3937 19.4812V19.4812L14.3438 14.9812" stroke="#5A7BEF" stroke-width="2" stroke-linecap="round" stroke-linejoin="round"/>
</svg>
