<svg width="22" height="16" viewBox="0 0 22 16" fill="none" xmlns="http://www.w3.org/2000/svg">
<path d="M9.26663 15.0344C9.53329 14.7677 9.66129 14.4455 9.65063 14.0677C9.63907 13.69 9.49996 13.3677 9.23329 13.1011L5.46663 9.33442H20.3333C20.7111 9.33442 21.028 9.20642 21.284 8.95042C21.5391 8.6953 21.6666 8.37886 21.6666 8.00108C21.6666 7.6233 21.5391 7.30642 21.284 7.05042C21.028 6.7953 20.7111 6.66775 20.3333 6.66775H5.46663L9.26663 2.86775C9.53329 2.60108 9.66663 2.28419 9.66663 1.91708C9.66663 1.55086 9.53329 1.23442 9.26663 0.967749C8.99996 0.701082 8.68307 0.567749 8.31596 0.567749C7.94974 0.567749 7.63329 0.701082 7.36662 0.967749L1.26663 7.06775C1.13329 7.20108 1.03862 7.34553 0.982624 7.50108C0.927513 7.65664 0.899958 7.8233 0.899958 8.00108C0.899958 8.17886 0.927513 8.34553 0.982624 8.50108C1.03862 8.65664 1.13329 8.80108 1.26663 8.93442L7.39996 15.0677C7.6444 15.3122 7.94974 15.4344 8.31596 15.4344C8.68307 15.4344 8.99996 15.3011 9.26663 15.0344Z" fill="white"/>
</svg>
