<svg width="23" height="24" viewBox="0 0 23 24" fill="none" xmlns="http://www.w3.org/2000/svg">
<path d="M21.2945 5.07933L7.35839 9.00739H21.8586C22.0619 9.00739 22.2568 9.08637 22.4005 9.22695C22.5443 9.36753 22.625 9.55821 22.625 9.75702V20.2518C22.625 21.2459 22.2213 22.1993 21.5026 22.9022C20.784 23.6051 19.8093 24 18.793 24H4.99788C3.98211 23.9992 3.00822 23.604 2.29025 22.9011C1.57227 22.1983 1.16897 21.2454 1.16897 20.2518V9.86347L0.775041 8.52463C0.635582 8.05161 0.592757 7.55635 0.64901 7.06715C0.705263 6.57794 0.859494 6.10436 1.10289 5.67346C1.34629 5.24256 1.67409 4.86278 2.06756 4.55582C2.46104 4.24885 2.91248 4.02071 3.39612 3.88442L16.6502 0.146758C17.1338 0.0103506 17.6401 -0.0315377 18.1403 0.023485C18.6404 0.0785076 19.1246 0.229363 19.5651 0.467437C20.0056 0.70551 20.3939 1.02614 20.7078 1.411C21.0216 1.79587 21.2548 2.23744 21.3942 2.71049L21.8188 4.14979C21.8469 4.24449 21.8556 4.34368 21.8445 4.4417C21.8333 4.53971 21.8025 4.63461 21.7538 4.72095C21.7051 4.8073 21.6395 4.88341 21.5607 4.9449C21.4819 5.0064 21.3914 5.05208 21.2945 5.07933ZM2.45651 8.82748L3.38692 8.56511L5.59721 4.82445L3.81917 5.3267C3.23382 5.49189 2.73942 5.87755 2.44455 6.399C2.14969 6.92046 2.07846 7.53506 2.24652 8.10783L2.45805 8.82748H2.45651ZM5.50984 7.9669L8.75936 7.04936L10.9712 3.3057L7.71399 4.22475C7.70426 4.24621 7.69352 4.26722 7.68181 4.28772L5.51137 7.9684L5.50984 7.9669ZM14.1349 5.5351L16.3451 1.78995L13.0864 2.709C13.0747 2.7362 13.0614 2.76273 13.0466 2.78846L10.8869 6.45265L14.1364 5.5366L14.1349 5.5351ZM18.2489 1.55906C18.2394 1.57743 18.2291 1.59543 18.2182 1.61304L16.2578 4.9354L20.1311 3.84394L19.9181 3.12429C19.8059 2.74224 19.5921 2.39612 19.2986 2.12116C19.0052 1.84621 18.6424 1.65226 18.2473 1.55906H18.2489ZM2.70176 10.5067V20.2518C2.70176 20.8483 2.944 21.4203 3.37518 21.8421C3.80636 22.2638 4.39117 22.5007 5.00095 22.5007H18.7961C19.4059 22.5007 19.9907 22.2638 20.4219 21.8421C20.853 21.4203 21.0953 20.8483 21.0953 20.2518V10.5067H2.70176Z" fill="#E36FEC"/>
</svg>
