<svg width="18" height="20" viewBox="0 0 18 20" fill="none" xmlns="http://www.w3.org/2000/svg">
<path d="M11.1851 0H6.74063C3.21285 0 0.444336 4.38889 0.444336 10C0.444336 15.6111 3.21285 20 6.74063 20H11.1851C14.7129 20 17.4814 15.6111 17.4814 10C17.4814 4.38889 14.7129 0 11.1851 0ZM12.5092 14.0741C12.7685 13.1047 12.9328 12.1123 12.9999 11.1111H15.2129C15.1402 12.1189 14.9443 13.114 14.6295 14.0741H12.5092ZM12.9999 8.88889C12.9328 7.88765 12.7685 6.89532 12.5092 5.92593H14.6295C14.9443 6.88603 15.1402 7.88111 15.2129 8.88889H12.9999ZM13.5184 3.7037H11.6666C11.4048 3.18207 11.0948 2.68608 10.7406 2.22222H11.1851C11.6851 2.22222 12.6017 2.42593 13.5184 3.7037ZM4.03693 15.7222C3.14804 14.213 2.66656 12.1852 2.66656 10C2.66656 7.81481 3.14804 5.78704 4.03693 4.27778C5.07397 2.49074 6.17582 2.22222 6.74063 2.22222C7.30545 2.22222 8.4073 2.49074 9.44433 4.27778C9.62322 4.58606 9.78398 4.9045 9.92582 5.23148C9.92539 5.2365 9.92599 5.24155 9.92759 5.24632C9.92918 5.2511 9.93173 5.2555 9.93508 5.25926C10.5092 6.62037 10.8147 8.25926 10.8147 10C10.8147 11.7407 10.5092 13.3796 9.93508 14.7407C9.93173 14.7445 9.92918 14.7489 9.92759 14.7537C9.92599 14.7585 9.92539 14.7635 9.92582 14.7685C9.78398 15.0955 9.62322 15.4139 9.44433 15.7222C8.4073 17.5093 7.30545 17.7778 6.74063 17.7778C6.17582 17.7778 5.07397 17.5093 4.03693 15.7222ZM11.1851 17.7778H10.7406C11.0948 17.3139 11.4048 16.8179 11.6666 16.2963H13.5184C12.6017 17.5741 11.6851 17.7778 11.1851 17.7778Z" fill="#B1B1B1"/>
</svg>
