<svg width="22" height="24" viewBox="0 0 22 24" fill="none" xmlns="http://www.w3.org/2000/svg">
<path d="M10.875 3.33333L18.875 9.33333V21.3333H2.87504V9.33333L10.875 3.33333ZM10.875 0L0.208374 8V24H21.5417V8L10.875 0ZM10.2084 8.66667V12.6667H9.54171V8.66667H8.20837V12.6667H7.54171V8.66667H6.20837V12.6667C6.20837 13.7733 7.10171 14.6667 8.20837 14.6667V20H9.54171V14.6667C10.6484 14.6667 11.5417 13.7733 11.5417 12.6667V8.66667H10.2084ZM12.2084 11.3333V15.3333H13.5417V20H14.875V8.66667C13.4084 8.66667 12.2084 9.86667 12.2084 11.3333Z" fill="#FFB91C"/>
</svg>
