<svg width="235" height="211" viewBox="0 0 235 211" fill="none" xmlns="http://www.w3.org/2000/svg">
<path d="M82.5665 37.1658C80.0566 37.8097 76.9542 38.7454 75.09 40.631C72.8184 42.9275 71.9823 46.4283 71.2406 49.9184C71.1694 50.2546 70.7069 50.2546 70.6358 49.9184C70.0363 47.122 69.266 43.7635 67.6455 41.6876C65.5838 39.046 62.4086 37.9662 59.292 37.1658C58.9665 37.0822 58.9665 36.6374 59.292 36.5538C62.019 35.8547 65.1427 34.928 67.0923 32.7844C69.1255 30.5484 69.942 27.0441 70.6358 23.8012C70.7069 23.465 71.1694 23.465 71.2406 23.8012C71.8881 26.8484 72.9945 30.3101 74.8374 32.482C76.8386 34.8408 79.667 35.8103 82.5665 36.5538C82.8938 36.6374 82.8938 37.0822 82.5665 37.1658Z" fill="#89D81A"/>
<path d="M33.6123 99.6574C30.0262 100.577 25.5915 101.915 22.9268 104.61C19.6804 107.893 18.4867 112.896 17.4265 117.882C17.3251 118.362 16.6652 118.364 16.562 117.882C15.7064 113.885 14.6035 109.085 12.2874 106.118C9.34165 102.343 4.8038 100.799 0.349545 99.6574C-0.116515 99.5382 -0.116515 98.9013 0.349545 98.7822C4.24524 97.7842 8.71016 96.459 11.4976 93.394C14.4025 90.1992 15.5694 85.1917 16.562 80.556C16.6652 80.0757 17.3251 80.0757 17.4265 80.556C18.3533 84.9107 19.9329 89.8576 22.5674 92.9617C25.4278 96.3327 29.4712 97.7184 33.6123 98.7804C34.0784 98.9013 34.0784 99.5364 33.6123 99.6574Z" fill="#89D81A"/>
<path d="M217.471 63.5437C216.254 63.855 214.749 64.3104 213.844 65.2247C212.743 66.3383 212.337 68.0371 211.976 69.7305C211.94 69.8942 211.718 69.8942 211.682 69.7305C211.392 68.3733 211.017 66.7456 210.231 65.737C209.231 64.4562 207.691 63.9315 206.179 63.5437C206.02 63.5028 206.02 63.2875 206.179 63.2466C207.502 62.9069 209.016 62.4586 209.962 61.4179C210.948 60.3328 211.344 58.634 211.681 57.0598C211.716 56.8961 211.938 56.8961 211.974 57.0598C212.289 58.538 212.824 60.2172 213.719 61.2703C214.69 62.4141 216.062 62.8855 217.469 63.2448C217.629 63.2857 217.629 63.5028 217.471 63.5437Z" fill="#89D81A"/>
<path d="M82.4241 170.156C81.2074 170.468 79.7024 170.923 78.797 171.837C77.6959 172.951 77.2903 174.65 76.9292 176.343C76.8936 176.507 76.6713 176.507 76.6357 176.343C76.3457 174.986 75.9704 173.358 75.1842 172.35C74.1844 171.069 72.6439 170.544 71.1319 170.156C70.9736 170.116 70.9736 169.9 71.1319 169.859C72.4536 169.52 73.9692 169.071 74.9155 168.031C75.901 166.946 76.2977 165.247 76.6339 163.673C76.6695 163.509 76.8919 163.509 76.9274 163.673C77.2423 165.151 77.7777 166.83 78.6725 167.883C79.6437 169.027 81.0152 169.498 82.4223 169.858C82.5824 169.9 82.5824 170.116 82.4241 170.156Z" fill="#89D81A"/>
<path d="M125.626 203.69C124.409 204.001 122.904 204.456 121.998 205.371C120.897 206.484 120.492 208.183 120.131 209.877C120.095 210.04 119.873 210.04 119.837 209.877C119.547 208.519 119.172 206.892 118.386 205.883C117.386 204.602 115.845 204.077 114.333 203.69C114.175 203.649 114.175 203.434 114.333 203.393C115.655 203.053 117.171 202.605 118.117 201.564C119.102 200.479 119.499 198.78 119.835 197.206C119.871 197.042 120.093 197.042 120.129 197.206C120.444 198.684 120.979 200.363 121.874 201.416C122.845 202.56 124.217 203.031 125.624 203.391C125.784 203.434 125.784 203.651 125.626 203.69Z" fill="#89D81A"/>
<path d="M132.942 180.042C93.2934 180.042 61.0356 147.785 61.0356 108.136C61.0356 68.487 93.2934 36.2292 132.942 36.2292C172.591 36.2292 204.849 68.487 204.849 108.136C204.849 147.785 172.591 180.042 132.942 180.042ZM132.942 41.009C95.9279 41.009 65.8137 71.1232 65.8137 108.138C65.8137 145.152 95.9279 175.266 132.942 175.266C169.957 175.266 200.071 145.152 200.071 108.138C200.071 71.1232 169.957 41.009 132.942 41.009Z" fill="#49C00F"/>
<path d="M170.827 73.298C166.684 69.0644 157.971 68.2852 153.933 73.298C146.983 81.9237 140.033 90.5494 133.083 99.175C129.775 103.282 126.464 107.39 123.155 111.497C121.981 112.956 120.583 115.142 119.059 117.173C118.762 116.868 118.463 116.56 118.164 116.254C115.917 113.945 113.672 111.638 111.426 109.329C100.683 98.2891 83.7966 115.192 94.5302 126.222C100.073 131.917 105.733 139.879 113.247 142.883C121.487 146.178 128.796 142.213 134.094 135.786C146.505 120.728 158.587 105.387 170.829 90.1918C174.904 85.131 175.68 78.2593 170.827 73.298Z" fill="#49C00F"/>
<path d="M153.444 44.8246C137.717 38.0916 94.4729 36.4658 72.488 79.3486C93.169 54.5318 115.568 41.9944 153.444 44.8246Z" fill="#BDDE23"/>
<path d="M118.517 173.377C155.046 170.737 180.311 149.366 197.79 123.589C194.965 139.655 184.109 154.411 170.954 163.49C157.8 172.569 137.371 178.102 118.341 173.377" fill="#15A208"/>
</svg>
