<svg width="11" height="13" viewBox="0 0 11 13" fill="none" xmlns="http://www.w3.org/2000/svg">
<path d="M2.89474 4.18422H6.36842V3.02633C6.36842 2.54387 6.19956 2.13379 5.86184 1.79607C5.52412 1.45835 5.11404 1.28949 4.63158 1.28949C4.14912 1.28949 3.73904 1.45835 3.40132 1.79607C3.0636 2.13379 2.89474 2.54387 2.89474 3.02633V4.18422ZM4.77632 12.2895H1.15789C0.839474 12.2895 0.566982 12.1762 0.340421 11.9496C0.113474 11.7227 0 11.45 0 11.1316V5.34212C0 5.0237 0.113474 4.75101 0.340421 4.52407C0.566982 4.2975 0.839474 4.18422 1.15789 4.18422H1.73684V3.02633C1.73684 2.22545 2.01918 1.54268 2.58384 0.978013C3.14812 0.413732 3.8307 0.131592 4.63158 0.131592C5.43246 0.131592 6.11523 0.413732 6.67989 0.978013C7.24418 1.54268 7.52632 2.22545 7.52632 3.02633V4.18422H8.10526C8.42368 4.18422 8.69637 4.2975 8.92332 4.52407C9.14988 4.75101 9.26316 5.0237 9.26316 5.34212V6.09475C9.08947 6.03686 8.90846 5.99343 8.72011 5.96449C8.53214 5.93554 8.32719 5.92107 8.10526 5.92107V5.34212H1.15789V11.1316H4.22632C4.30351 11.3632 4.3807 11.5635 4.45789 11.7325C4.53509 11.9012 4.64123 12.0869 4.77632 12.2895ZM8.10526 12.8684C7.30439 12.8684 6.62181 12.5863 6.05753 12.022C5.49286 11.4573 5.21053 10.7746 5.21053 9.9737C5.21053 9.17282 5.49286 8.49005 6.05753 7.92538C6.62181 7.3611 7.30439 7.07896 8.10526 7.07896C8.90614 7.07896 9.58891 7.3611 10.1536 7.92538C10.7179 8.49005 11 9.17282 11 9.9737C11 10.7746 10.7179 11.4573 10.1536 12.022C9.58891 12.5863 8.90614 12.8684 8.10526 12.8684ZM9.06053 11.3342L9.46579 10.929L8.39474 9.85791V8.23686H7.81579V10.0895L9.06053 11.3342ZM1.15789 5.34212V11.1316V5.34212Z" fill="#FFB91C"/>
</svg>
