<svg width="29" height="35" viewBox="0 0 29 35" fill="none" xmlns="http://www.w3.org/2000/svg">
<path d="M22.7211 9.79737L22.425 10.0065L23.1216 11.1938L23.4177 10.9846L22.7211 9.79737Z" fill="#14D610"/>
<path d="M12.9844 16.6745L12.6884 16.8837L13.3849 18.0709L13.681 17.8617L12.9844 16.6745Z" fill="#14D610"/>
<path d="M16.23 14.3817L15.934 14.5908L16.6305 15.778L16.9266 15.5689L16.23 14.3817Z" fill="#14D610"/>
<path d="M21.9919 10.3097L21.6958 10.5189L22.3923 11.7061L22.6884 11.4969L21.9919 10.3097Z" fill="#14D610"/>
<path d="M14.0427 15.9258L13.7466 16.135L14.4431 17.3222L14.7392 17.1131L14.0427 15.9258Z" fill="#14D610"/>
<path d="M14.7717 15.4128L14.4756 15.622L15.1721 16.8092L15.4682 16.6001L14.7717 15.4128Z" fill="#14D610"/>
<path d="M15.5009 14.8967L15.2048 15.1058L15.9014 16.2931L16.1975 16.0839L15.5009 14.8967Z" fill="#14D610"/>
<path d="M17.2879 13.635L16.9918 13.8441L17.6884 15.0313L17.9844 14.8222L17.2879 13.635Z" fill="#14D610"/>
<path d="M18.0173 13.1192L17.7212 13.3284L18.4177 14.5156L18.7138 14.3064L18.0173 13.1192Z" fill="#14D610"/>
<path d="M20.5335 11.3414L20.2374 11.5506L20.934 12.7378L21.23 12.5287L20.5335 11.3414Z" fill="#14D610"/>
<path d="M21.2628 10.8267L20.9667 11.0359L21.6632 12.2231L21.9593 12.014L21.2628 10.8267Z" fill="#14D610"/>
<path d="M19.4755 12.09L19.1794 12.2991L19.876 13.4864L20.1721 13.2772L19.4755 12.09Z" fill="#14D610"/>
<path d="M18.7465 12.6039L18.4504 12.813L19.147 14.0003L19.4431 13.7911L18.7465 12.6039Z" fill="#14D610"/>
<path d="M5.77551 14.6395L11.0479 23.6256C11.3484 24.138 11.9708 24.2857 12.4378 23.956L26.5082 14.0159C26.9752 13.6862 27.1098 13.0032 26.8093 12.4908L21.5369 3.50475C21.2365 2.99233 20.6141 2.84462 20.1471 3.1743L6.07665 13.1144C5.60967 13.4445 5.47472 14.1271 5.77551 14.6395ZM18.1064 14.7507C18.1237 14.78 18.1293 14.81 18.1231 14.8405C18.1172 14.871 18.1005 14.8957 18.0738 14.9147L17.7334 15.1553C17.7067 15.1744 17.679 15.1805 17.6505 15.1744C17.6221 15.1683 17.5992 15.1504 17.5822 15.1211L16.873 13.9124C16.8557 13.883 16.8505 13.8526 16.8571 13.8217C16.8637 13.7909 16.8803 13.7658 16.907 13.7467L17.2474 13.5061C17.2741 13.4871 17.3015 13.481 17.3293 13.4875C17.357 13.494 17.3796 13.5122 17.3969 13.5416L18.1064 14.7507ZM18.8357 14.2352C18.853 14.2645 18.8586 14.2946 18.8523 14.325C18.8464 14.3555 18.8298 14.3802 18.8031 14.3993L18.4627 14.6399C18.436 14.6589 18.4082 14.665 18.3798 14.6589C18.3513 14.6528 18.3284 14.6349 18.3114 14.6056L17.6023 13.3969C17.585 13.3676 17.5797 13.3371 17.5863 13.3063C17.5929 13.2754 17.6096 13.2503 17.6363 13.2313L17.9766 12.9907C18.0034 12.9716 18.0308 12.9656 18.0585 12.9724C18.0863 12.9789 18.1088 12.9971 18.1262 13.0265L18.8357 14.2352ZM19.5649 13.7201C19.5823 13.7494 19.5878 13.7795 19.5816 13.8099C19.5757 13.8404 19.559 13.8651 19.5323 13.8842L19.192 14.1248C19.1653 14.1438 19.1375 14.1499 19.1091 14.1438C19.0806 14.1377 19.0577 14.1198 19.0407 14.0905L18.3316 12.8818C18.3142 12.8525 18.309 12.822 18.3156 12.7912C18.3222 12.7604 18.3389 12.7352 18.3656 12.7162L18.7059 12.4756C18.7326 12.4566 18.76 12.4505 18.7878 12.4569C18.8155 12.4634 18.8381 12.4817 18.8554 12.511L19.5649 13.7201ZM20.2938 13.205C20.3112 13.2343 20.3167 13.2644 20.3105 13.2949C20.3046 13.3253 20.2879 13.3501 20.2612 13.3691L19.9209 13.6097C19.8942 13.6287 19.8664 13.6348 19.838 13.6287C19.8095 13.6226 19.7866 13.6047 19.7696 13.5754L19.0605 12.3667C19.0431 12.3374 19.0379 12.3069 19.0445 12.2761C19.0511 12.2453 19.0678 12.2201 19.0945 12.2011L19.4348 11.9605C19.4615 11.9415 19.4889 11.9354 19.5167 11.9418C19.5445 11.9483 19.567 11.9666 19.5844 11.9959L20.2938 13.205ZM21.352 12.4577C21.3694 12.487 21.3749 12.5171 21.3687 12.5475C21.3628 12.578 21.3461 12.6027 21.3194 12.6218L20.9791 12.8624C20.9523 12.8814 20.9246 12.8875 20.8961 12.8814C20.8677 12.8753 20.8448 12.8574 20.8278 12.8281L20.1186 11.6194C20.1013 11.5901 20.0961 11.5596 20.1027 11.5288C20.1093 11.4979 20.1259 11.4728 20.1526 11.4538L20.493 11.2132C20.5197 11.1941 20.5471 11.1881 20.5749 11.1945C20.6026 11.201 20.6252 11.2193 20.6425 11.2486L21.352 12.4577ZM20.8819 10.9387L21.2223 10.6981C21.249 10.6791 21.2764 10.673 21.3041 10.6794C21.3319 10.6859 21.3544 10.7042 21.3718 10.7335L22.0809 11.9422C22.0983 11.9715 22.1038 12.0016 22.0976 12.0321C22.0917 12.0625 22.075 12.0873 22.0483 12.1063L21.708 12.3469C21.6813 12.3659 21.6535 12.372 21.625 12.3659C21.5966 12.3599 21.5737 12.342 21.5567 12.3126L20.8476 11.1039C20.8302 11.0746 20.825 11.0442 20.8316 11.0133C20.8385 10.9825 20.8552 10.9577 20.8819 10.9387ZM22.0639 8.45539C22.1541 8.60881 22.1135 8.81363 21.9737 8.91261L20.6567 9.84304C20.5169 9.94202 20.3303 9.89748 20.2401 9.74406L19.7714 8.94497C19.6812 8.79155 19.7217 8.58673 19.8616 8.48775L21.1785 7.55731C21.3184 7.45833 21.505 7.50287 21.5952 7.65629L22.0639 8.45539ZM21.5612 10.4982C21.5678 10.4674 21.5845 10.4423 21.6112 10.4232L21.9515 10.1826C21.9782 10.1636 22.0056 10.1575 22.0334 10.1644C22.0612 10.1708 22.0837 10.1891 22.101 10.2184L22.8102 11.4271C22.8275 11.4565 22.8331 11.4865 22.8268 11.517C22.8209 11.5474 22.8043 11.5722 22.7776 11.5912L22.4372 11.8318C22.4105 11.8509 22.3828 11.8569 22.3543 11.8509C22.3259 11.8448 22.303 11.8269 22.286 11.7976L21.5768 10.5888C21.5598 10.5595 21.5546 10.5294 21.5612 10.4982ZM23.5395 10.9124C23.5568 10.9417 23.5624 10.9718 23.5561 11.0023C23.5502 11.0327 23.5336 11.0575 23.5068 11.0765L23.1665 11.3171C23.1398 11.3362 23.112 11.3422 23.0836 11.3362C23.0551 11.3301 23.0322 11.3122 23.0152 11.2829L22.3061 10.0741C22.2887 10.0448 22.2835 10.0144 22.2901 9.98352C22.2967 9.95268 22.3134 9.92756 22.3401 9.90852L22.6804 9.66792C22.7072 9.64888 22.7346 9.64279 22.7623 9.64927C22.7901 9.65574 22.8126 9.67401 22.83 9.70332L23.5395 10.9124ZM18.3541 17.8595C18.2355 17.6577 18.2889 17.3885 18.4728 17.2583L24.4713 13.0204C24.6552 12.8902 24.9005 12.9488 25.0191 13.1506C25.1378 13.3523 25.0844 13.6215 24.9005 13.7517L18.9019 17.9897C18.7177 18.1199 18.4724 18.0612 18.3541 17.8595ZM15.8152 14.6597C15.7979 14.6304 15.7927 14.5999 15.7993 14.5691C15.8058 14.5382 15.8225 14.5131 15.8492 14.4941L16.1896 14.2535C16.2163 14.2344 16.2437 14.2283 16.2714 14.2352C16.2992 14.2417 16.3217 14.2599 16.3391 14.2892L17.0482 15.498C17.0656 15.5273 17.0711 15.5574 17.0649 15.5878C17.059 15.6183 17.0423 15.643 17.0156 15.6621L16.6753 15.9027C16.6486 15.9217 16.6208 15.9278 16.5924 15.9217C16.5639 15.9156 16.541 15.8977 16.524 15.8684L15.8152 14.6597ZM15.086 15.1748C15.0686 15.1454 15.0634 15.115 15.07 15.0842C15.0766 15.0533 15.0932 15.0282 15.12 15.0092L15.4603 14.7685C15.487 14.7495 15.5144 14.7434 15.5422 14.7499C15.5699 14.7564 15.5925 14.7746 15.6098 14.804L16.319 16.0127C16.3363 16.042 16.3419 16.0721 16.3356 16.1025C16.3297 16.133 16.3131 16.1577 16.2864 16.1768L15.946 16.4174C15.9193 16.4364 15.8915 16.4425 15.8631 16.4364C15.8346 16.4303 15.8117 16.4124 15.7947 16.3831L15.086 15.1748ZM14.3567 15.6898C14.3393 15.6605 14.3341 15.6301 14.3407 15.5992C14.3473 15.5684 14.364 15.5433 14.3907 15.5242L14.731 15.2836C14.7578 15.2646 14.7852 15.2585 14.8129 15.2654C14.8407 15.2718 14.8632 15.2901 14.8806 15.3194L15.5897 16.5282C15.6071 16.5575 15.6126 16.5875 15.6064 16.618C15.6005 16.6485 15.5838 16.6732 15.5571 16.6922L15.2168 16.9328C15.19 16.9519 15.1623 16.958 15.1338 16.9519C15.1054 16.9458 15.0825 16.9279 15.0655 16.8986L14.3567 15.6898ZM13.6278 16.2049C13.6104 16.1756 13.6052 16.1452 13.6118 16.1143C13.6184 16.0835 13.6351 16.0584 13.6618 16.0393L14.0021 15.7987C14.0288 15.7797 14.0562 15.7736 14.084 15.7801C14.1118 15.7865 14.1343 15.8048 14.1516 15.8341L14.8608 17.0429C14.8781 17.0722 14.8837 17.1022 14.8774 17.1327C14.8715 17.1632 14.8549 17.1879 14.8282 17.2069L14.4878 17.4475C14.4611 17.4666 14.4334 17.4727 14.4049 17.4666C14.3765 17.4605 14.3536 17.4426 14.3366 17.4133L13.6278 16.2049ZM14.3407 19.4318L15.1446 18.8641L15.1699 18.9072L14.3661 19.4748L14.3407 19.4318ZM13.8196 17.8808C13.8137 17.9112 13.7971 17.936 13.7704 17.955L13.43 18.1956C13.4033 18.2147 13.3755 18.2207 13.3471 18.2147C13.3186 18.2086 13.2957 18.1907 13.2787 18.1614L12.5696 16.9526C12.5523 16.9233 12.5471 16.8929 12.5537 16.862C12.5602 16.8312 12.5769 16.8061 12.6036 16.787L12.944 16.5464C12.9707 16.5274 12.9981 16.5213 13.0258 16.5278C13.0536 16.5342 13.0761 16.5525 13.0935 16.5818L13.8026 17.7906C13.8203 17.8202 13.8259 17.8503 13.8196 17.8808ZM13.5091 19.4675L13.5279 19.4203L14.4053 19.8364L14.3865 19.8836L13.5091 19.4675ZM13.0907 18.3959C13.0848 18.4263 13.0682 18.4511 13.0414 18.4701L12.7011 18.7107C12.6744 18.7297 12.6466 18.7358 12.6182 18.7297C12.5897 18.7237 12.5668 18.7058 12.5498 18.6764L11.8407 17.4677C11.8233 17.4384 11.8181 17.4079 11.8247 17.3771C11.8313 17.3463 11.848 17.3211 11.8747 17.3021L12.215 17.0615C12.2418 17.0425 12.2692 17.0364 12.2969 17.0432C12.3247 17.0497 12.3472 17.068 12.3646 17.0973L13.0737 18.306C13.0911 18.3353 13.0966 18.3654 13.0907 18.3959ZM12.8836 20.4612L13.6874 19.8932L13.7128 19.9362L12.9089 20.5038L12.8836 20.4612ZM11.1114 17.9824C11.0941 17.9531 11.0889 17.923 11.0955 17.8918C11.1021 17.861 11.1187 17.8359 11.1454 17.8168L11.4858 17.5762C11.5125 17.5572 11.5399 17.5511 11.5676 17.5576C11.5954 17.564 11.618 17.5823 11.6353 17.6116L12.3444 18.8203C12.3618 18.8497 12.3673 18.8797 12.3611 18.9102C12.3552 18.9407 12.3385 18.9654 12.3118 18.9844L11.9715 19.225C11.9448 19.2441 11.917 19.2502 11.8886 19.2441C11.8601 19.238 11.8372 19.2201 11.8202 19.1908L11.1114 17.9824ZM10.3822 18.4979C10.3648 18.4686 10.3596 18.4381 10.3662 18.4073C10.3728 18.3765 10.3894 18.3513 10.4162 18.3323L10.7565 18.0917C10.7832 18.0727 10.8106 18.0666 10.8384 18.073C10.8661 18.0795 10.8887 18.0978 10.906 18.1271L11.6152 19.3358C11.6325 19.3651 11.6381 19.3952 11.6322 19.4257C11.6263 19.4561 11.6096 19.4809 11.5829 19.4999L11.2426 19.7405C11.2159 19.7595 11.1881 19.7656 11.1596 19.7595C11.1312 19.7534 11.1083 19.7356 11.0913 19.7062L10.3822 18.4979ZM8.14128 15.0331L14.0222 10.8785L14.0476 10.9216L8.16661 15.0762L8.14128 15.0331ZM7.63649 14.1728L10.7926 11.943L10.8179 11.986L7.66182 14.2158L7.63649 14.1728Z" fill="#14D610"/>
<path d="M12.2552 17.1889L11.9591 17.3981L12.6556 18.5853L12.9517 18.3761L12.2552 17.1889Z" fill="#14D610"/>
<path d="M11.5262 17.705L11.2301 17.9141L11.9266 19.1014L12.2227 18.8922L11.5262 17.705Z" fill="#14D610"/>
<path d="M10.7969 18.2197L10.5009 18.4289L11.1974 19.6161L11.4935 19.407L10.7969 18.2197Z" fill="#14D610"/>
<path d="M10.7913 11.9441L7.63538 14.1736L7.66073 14.2169L10.8167 11.9873L10.7913 11.9441Z" fill="white"/>
<path d="M15.1426 18.8652L14.339 19.4329L14.3643 19.4761L15.168 18.9084L15.1426 18.8652Z" fill="white"/>
<path d="M13.6856 19.8949L12.882 20.4626L12.9073 20.5058L13.711 19.9381L13.6856 19.8949Z" fill="white"/>
<path d="M13.5265 19.4222L13.5079 19.4694L14.3851 19.886L14.4037 19.8388L13.5265 19.4222Z" fill="white"/>
<path d="M14.021 10.8793L8.13989 15.0339L8.16524 15.0771L14.0463 10.9225L14.021 10.8793Z" fill="white"/>
<path d="M23.5565 11.0023C23.5624 10.9718 23.5568 10.9418 23.5398 10.9124L22.8307 9.70371C22.8133 9.6744 22.7908 9.65612 22.763 9.64965C22.7353 9.64318 22.7079 9.64927 22.6811 9.66831L22.3408 9.90891C22.3141 9.92794 22.2974 9.95269 22.2908 9.98391C22.2842 10.0147 22.2895 10.0452 22.3068 10.0745L23.0159 11.2832C23.0333 11.3126 23.0562 11.3304 23.0843 11.3365C23.1127 11.3426 23.1401 11.3365 23.1672 11.3175L23.5076 11.0769C23.5339 11.0575 23.5502 11.0327 23.5565 11.0023ZM23.4191 10.9821L23.1231 11.1911L22.4265 10.0041L22.7224 9.79508L23.4191 10.9821Z" fill="white"/>
<path d="M21.6112 10.4236C21.5845 10.4426 21.5678 10.4674 21.5612 10.4986C21.5546 10.5294 21.5598 10.5599 21.5772 10.5892L22.2863 11.7979C22.3037 11.8273 22.3266 11.8451 22.3547 11.8512C22.3831 11.8573 22.4105 11.8512 22.4376 11.8322L22.7779 11.5916C22.8047 11.5726 22.8213 11.5478 22.8272 11.5174C22.8331 11.4869 22.8276 11.4568 22.8106 11.4275L22.1014 10.2188C22.0841 10.1895 22.0615 10.1712 22.0338 10.1647C22.006 10.1583 21.9786 10.1644 21.9519 10.183L21.6112 10.4236ZM21.6976 10.5192L21.9935 10.3102L22.6902 11.4972L22.3942 11.7062L21.6976 10.5192Z" fill="white"/>
<path d="M21.2223 10.6981L20.8819 10.9387C20.8552 10.9578 20.8386 10.9825 20.832 11.0137C20.8254 11.0446 20.8306 11.075 20.8479 11.1043L21.5571 12.3131C21.5744 12.3424 21.5973 12.3603 21.6254 12.3664C21.6539 12.3724 21.6813 12.3664 21.7083 12.3473L22.0487 12.1067C22.0754 12.0877 22.0921 12.0629 22.098 12.0325C22.1039 12.002 22.0983 11.9719 22.0813 11.9426L21.3722 10.7339C21.3548 10.7046 21.3323 10.6863 21.3045 10.6798C21.2764 10.673 21.2493 10.6795 21.2223 10.6981ZM21.9609 12.0123L21.665 12.2213L20.9683 11.0343L21.2643 10.8253L21.9609 12.0123Z" fill="white"/>
<path d="M21.369 12.5476C21.3749 12.5171 21.3693 12.487 21.3523 12.4577L20.6432 11.249C20.6258 11.2197 20.6033 11.2014 20.5755 11.1949C20.5478 11.1885 20.5204 11.1946 20.4936 11.2136L20.1533 11.4542C20.1266 11.4732 20.1099 11.498 20.1033 11.5292C20.0967 11.56 20.102 11.5905 20.1193 11.6198L20.8284 12.8285C20.8458 12.8578 20.8687 12.8757 20.8968 12.8818C20.9252 12.8879 20.9526 12.8818 20.9797 12.8628L21.3201 12.6222C21.3464 12.6028 21.3627 12.578 21.369 12.5476ZM21.2316 12.5274L20.9356 12.7364L20.239 11.5494L20.5349 11.3404L21.2316 12.5274Z" fill="white"/>
<path d="M20.3109 13.2952C20.3168 13.2648 20.3112 13.2347 20.2942 13.2054L19.5851 11.9967C19.5677 11.9674 19.5452 11.9491 19.5174 11.9426C19.4897 11.9361 19.4623 11.9422 19.4355 11.9613L19.0952 12.2019C19.0685 12.2209 19.0518 12.2457 19.0452 12.2769C19.0386 12.3077 19.0438 12.3382 19.0612 12.3675L19.7703 13.5762C19.7877 13.6055 19.8106 13.6234 19.8387 13.6295C19.8671 13.6356 19.8949 13.6295 19.9216 13.6105L20.2619 13.3699C20.2883 13.3505 20.3046 13.3257 20.3109 13.2952ZM20.1738 13.2747L19.8779 13.4837L19.1812 12.2967L19.4772 12.0877L20.1738 13.2747Z" fill="white"/>
<path d="M19.5816 13.8103C19.5875 13.7799 19.582 13.7498 19.565 13.7205L18.8558 12.5118C18.8385 12.4824 18.8159 12.4642 18.7882 12.4577C18.7604 12.4512 18.733 12.4573 18.7063 12.4763L18.3659 12.717C18.3392 12.736 18.3226 12.7607 18.316 12.792C18.3094 12.8228 18.3146 12.8532 18.3319 12.8826L19.0411 14.0913C19.0584 14.1206 19.0813 14.1385 19.1094 14.1446C19.1379 14.1507 19.1653 14.1446 19.1924 14.1255L19.5327 13.8849C19.5591 13.8655 19.5757 13.8408 19.5816 13.8103ZM19.4446 13.7901L19.1486 13.9992L18.452 12.8121L18.7479 12.6031L19.4446 13.7901Z" fill="white"/>
<path d="M18.8524 14.3254C18.8583 14.2949 18.8527 14.2649 18.8357 14.2356L18.1266 13.0268C18.1092 12.9975 18.0867 12.9792 18.0589 12.9728C18.0312 12.9663 18.0038 12.9724 17.977 12.991L17.6367 13.2317C17.61 13.2507 17.5933 13.2754 17.5867 13.3066C17.5801 13.3375 17.5854 13.3679 17.6027 13.3973L18.3118 14.606C18.3292 14.6353 18.3521 14.6532 18.3802 14.6593C18.4086 14.6654 18.436 14.6593 18.4631 14.6402L18.8035 14.3996C18.8302 14.3806 18.8465 14.3559 18.8524 14.3254ZM18.7153 14.3052L18.4194 14.5142L17.7227 13.3272L18.0187 13.1182L18.7153 14.3052Z" fill="white"/>
<path d="M18.1235 14.8405C18.1294 14.8101 18.1238 14.78 18.1068 14.7507L17.3977 13.542C17.3803 13.5127 17.3578 13.4944 17.33 13.4879C17.3023 13.4814 17.2749 13.4875 17.2482 13.5066L16.9078 13.7472C16.8811 13.7662 16.8644 13.7909 16.8579 13.8222C16.8513 13.853 16.8565 13.8835 16.8738 13.9128L17.583 15.1215C17.6003 15.1508 17.6232 15.1687 17.6513 15.1748C17.6798 15.1809 17.7072 15.1748 17.7342 15.1558L18.0746 14.9152C18.1009 14.8957 18.1172 14.871 18.1235 14.8405ZM17.9861 14.8204L17.6902 15.0294L16.9935 13.8423L17.2895 13.6333L17.9861 14.8204Z" fill="white"/>
<path d="M15.7993 14.5691C15.7927 14.5999 15.7979 14.6304 15.8152 14.6597L16.5244 15.8684C16.5417 15.8977 16.5646 15.9156 16.5927 15.9217C16.6212 15.9278 16.6486 15.9217 16.6756 15.9027L17.016 15.6621C17.0427 15.6431 17.0593 15.6183 17.0652 15.5879C17.0711 15.5574 17.0656 15.5273 17.0486 15.498L16.3394 14.2893C16.3221 14.26 16.2995 14.2417 16.2718 14.2352C16.244 14.2288 16.2166 14.2348 16.1899 14.2535L15.8496 14.4941C15.8225 14.5131 15.8059 14.5379 15.7993 14.5691ZM15.9356 14.5897L16.2316 14.3807L16.9282 15.5677L16.6323 15.7767L15.9356 14.5897Z" fill="white"/>
<path d="M15.07 15.0842C15.0634 15.115 15.0686 15.1455 15.086 15.1748L15.7951 16.3835C15.8125 16.4128 15.8354 16.4307 15.8635 16.4368C15.8919 16.4429 15.9197 16.4368 15.9464 16.4178L16.2867 16.1772C16.3134 16.1581 16.3301 16.1334 16.336 16.1029C16.3419 16.0725 16.3363 16.0424 16.3193 16.0131L15.6102 14.8044C15.5929 14.775 15.5703 14.7568 15.5425 14.7503C15.5148 14.7438 15.4874 14.7499 15.4607 14.769L15.1203 15.0096C15.0933 15.0282 15.0766 15.053 15.07 15.0842ZM15.2064 15.1047L15.5023 14.8957L16.199 16.0828L15.903 16.2918L15.2064 15.1047Z" fill="white"/>
<path d="M14.3408 15.5993C14.3342 15.6301 14.3394 15.6605 14.3567 15.6899L15.0659 16.8986C15.0832 16.9279 15.1061 16.9458 15.1342 16.9519C15.1627 16.958 15.1901 16.9519 15.2171 16.9328L15.5575 16.6922C15.5842 16.6732 15.6008 16.6485 15.6067 16.618C15.6126 16.5876 15.6071 16.5575 15.5901 16.5282L14.8809 15.3194C14.8636 15.2901 14.8411 15.2719 14.8133 15.2654C14.7855 15.2589 14.7581 15.265 14.7314 15.2837L14.3911 15.5243C14.364 15.5433 14.3474 15.5684 14.3408 15.5993ZM14.4771 15.6202L14.7731 15.4112L15.4697 16.5982L15.1738 16.8072L14.4771 15.6202Z" fill="white"/>
<path d="M13.6119 16.1143C13.6053 16.1452 13.6105 16.1756 13.6278 16.2049L14.337 17.4137C14.3543 17.443 14.3772 17.4609 14.4053 17.467C14.4338 17.473 14.4612 17.467 14.4883 17.4479L14.8286 17.2073C14.8553 17.1883 14.872 17.1635 14.8779 17.1331C14.8838 17.1026 14.8782 17.0725 14.8612 17.0432L14.1521 15.8345C14.1347 15.8052 14.1122 15.7869 14.0844 15.7804C14.0567 15.774 14.0293 15.7801 14.0025 15.7991L13.6622 16.0397C13.6351 16.0584 13.6185 16.0835 13.6119 16.1143ZM13.7482 16.1353L14.0442 15.9263L14.7408 17.1133L14.4449 17.3223L13.7482 16.1353Z" fill="white"/>
<path d="M13.7704 17.955C13.7971 17.936 13.8138 17.9112 13.8197 17.8808C13.8256 17.8503 13.82 17.8202 13.803 17.7909L13.0939 16.5822C13.0765 16.5529 13.054 16.5346 13.0262 16.5281C12.9985 16.5217 12.971 16.5277 12.9443 16.5468L12.604 16.7874C12.5773 16.8064 12.5606 16.8312 12.554 16.8624C12.5474 16.8932 12.5526 16.9237 12.57 16.953L13.2791 18.1617C13.2965 18.191 13.3194 18.2089 13.3475 18.215C13.3759 18.2211 13.4033 18.215 13.4304 18.196L13.7704 17.955ZM13.6826 17.8606L13.3867 18.0696L12.69 16.8826L12.986 16.6736L13.6826 17.8606Z" fill="white"/>
<path d="M13.0415 18.4701C13.0682 18.4511 13.0849 18.4264 13.0908 18.3959C13.0967 18.3654 13.0911 18.3354 13.0741 18.3061L12.365 17.0973C12.3476 17.068 12.3251 17.0497 12.2973 17.0433C12.2696 17.0368 12.2422 17.0429 12.2154 17.0615L11.8751 17.3021C11.8484 17.3212 11.8317 17.3459 11.8251 17.3771C11.8186 17.408 11.8238 17.4384 11.8411 17.4678L12.5502 18.6765C12.5676 18.7058 12.5905 18.7237 12.6186 18.7298C12.647 18.7359 12.6748 18.7298 12.7015 18.7107L13.0415 18.4701ZM12.9534 18.3757L12.6574 18.5847L11.9608 17.3977L12.2567 17.1887L12.9534 18.3757Z" fill="white"/>
<path d="M11.0955 17.8922C11.0889 17.9231 11.0941 17.9535 11.1115 17.9828L11.8206 19.1915C11.838 19.2209 11.8609 19.2388 11.889 19.2448C11.9174 19.2509 11.9448 19.2448 11.9719 19.2258L12.3122 18.9852C12.339 18.9662 12.3556 18.9414 12.3615 18.911C12.3674 18.8805 12.3619 18.8504 12.3449 18.8211L11.6357 17.6124C11.6184 17.5831 11.5958 17.5648 11.5681 17.5583C11.5403 17.5519 11.5129 17.558 11.4862 17.577L11.1458 17.8176C11.1188 17.8363 11.1021 17.861 11.0955 17.8922ZM11.2319 17.9128L11.5278 17.7038L12.2245 18.8908L11.9285 19.0998L11.2319 17.9128Z" fill="white"/>
<path d="M10.3663 18.4073C10.3597 18.4381 10.3649 18.4686 10.3822 18.4979L11.0914 19.7066C11.1087 19.7359 11.1316 19.7538 11.1597 19.7599C11.1882 19.766 11.2159 19.7599 11.2426 19.7409L11.583 19.5003C11.6097 19.4812 11.6264 19.4565 11.6323 19.426C11.6382 19.3956 11.6326 19.3655 11.6153 19.3362L10.9061 18.1275C10.8888 18.0982 10.8662 18.0799 10.8385 18.0734C10.8107 18.0669 10.7833 18.073 10.7566 18.0921L10.4162 18.3327C10.3895 18.3513 10.3729 18.3761 10.3663 18.4073ZM10.5026 18.4279L10.7986 18.2188L11.4952 19.4059L11.1993 19.6149L10.5026 18.4279Z" fill="white"/>
<path d="M18.4728 17.2583L24.4714 13.0204C24.6553 12.8902 24.9005 12.9488 25.0192 13.1506C25.1378 13.3524 25.0844 13.6215 24.9005 13.7517L18.902 17.9897C18.7181 18.1199 18.4728 18.0612 18.3542 17.8595C18.2355 17.6573 18.2886 17.3882 18.4728 17.2583Z" fill="#216356"/>
<path d="M21.9738 8.91265L20.6568 9.84308C20.517 9.94206 20.3303 9.89752 20.2401 9.7441L19.7714 8.94501C19.6812 8.79159 19.7218 8.58677 19.8616 8.48779L21.1786 7.55735C21.3184 7.45837 21.5051 7.50291 21.5953 7.65634L22.064 8.45543C22.1542 8.60923 22.1136 8.81367 21.9738 8.91265Z" fill="#216356"/>
<path d="M17.1413 5.80327L16.9203 6.10413L17.9222 6.99017L18.1432 6.68931L17.1413 5.80327Z" fill="#14D610"/>
<path d="M9.87453 15.6956L9.65356 15.9965L10.6555 16.8825L10.8764 16.5816L9.87453 15.6956Z" fill="#14D610"/>
<path d="M12.2968 12.399L12.0758 12.6998L13.0777 13.5859L13.2987 13.285L12.2968 12.399Z" fill="#14D610"/>
<path d="M16.5971 6.5446L16.3761 6.84546L17.378 7.7315L17.599 7.43064L16.5971 6.5446Z" fill="#14D610"/>
<path d="M10.6646 14.622L10.4436 14.9229L11.4455 15.8089L11.6665 15.508L10.6646 14.622Z" fill="#14D610"/>
<path d="M11.2085 13.8807L10.9875 14.1815L11.9894 15.0676L12.2104 14.7667L11.2085 13.8807Z" fill="#14D610"/>
<path d="M11.7532 13.1407L11.5322 13.4415L12.5341 14.3276L12.7551 14.0267L11.7532 13.1407Z" fill="#14D610"/>
<path d="M13.0862 11.3235L12.8652 11.6243L13.8671 12.5104L14.0881 12.2095L13.0862 11.3235Z" fill="#14D610"/>
<path d="M13.6305 10.5825L13.4095 10.8834L14.4114 11.7694L14.6324 11.4685L13.6305 10.5825Z" fill="#14D610"/>
<path d="M15.5089 8.02654L15.288 8.32739L16.2899 9.21343L16.5108 8.91258L15.5089 8.02654Z" fill="#14D610"/>
<path d="M16.0532 7.28544L15.8323 7.5863L16.8342 8.47235L17.0551 8.17149L16.0532 7.28544Z" fill="#14D610"/>
<path d="M14.7195 9.10222L14.4985 9.40308L15.5004 10.2891L15.7214 9.98826L14.7195 9.10222Z" fill="#14D610"/>
<path d="M14.1752 9.84306L13.9542 10.1439L14.9561 11.03L15.1771 10.7291L14.1752 9.84306Z" fill="#14D610"/>
<path d="M2.44835 16.2595L10.0317 22.9663C10.464 23.3485 11.0972 23.2739 11.4455 22.7995L21.9466 8.5023C22.295 8.02795 22.227 7.33317 21.7947 6.95095L14.2113 0.244138C13.779 -0.138086 13.1459 -0.0634681 12.7975 0.410885L2.29639 14.7081C1.94807 15.1825 2.01607 15.8772 2.44835 16.2595ZM14.1839 12.103C14.2089 12.1251 14.2228 12.1513 14.2255 12.1825C14.2286 12.2138 14.22 12.2427 14.2002 12.2701L13.9462 12.6158C13.9261 12.6428 13.9018 12.6584 13.873 12.6626C13.8442 12.6664 13.8175 12.6577 13.7925 12.6356L12.7725 11.7333C12.7476 11.7112 12.734 11.6846 12.7313 11.653C12.7285 11.6214 12.7372 11.5921 12.7573 11.5647L13.0112 11.2186C13.0314 11.1912 13.0553 11.176 13.0838 11.1729C13.1122 11.1695 13.1386 11.179 13.1635 11.2007L14.1839 12.103ZM14.7279 11.3621C14.7529 11.3842 14.7668 11.4105 14.7695 11.4417C14.7727 11.4729 14.764 11.5018 14.7442 11.5293L14.4902 11.8749C14.4701 11.9023 14.4458 11.9176 14.417 11.9218C14.3882 11.9256 14.3615 11.9168 14.3365 11.8947L13.3165 10.9925C13.2916 10.9704 13.278 10.9437 13.2753 10.9121C13.2725 10.8805 13.2812 10.8512 13.3013 10.8238L13.5552 10.4781C13.5754 10.4507 13.5993 10.4355 13.6278 10.4325C13.6562 10.429 13.6826 10.4385 13.7076 10.4602L14.7279 11.3621ZM15.2722 10.6213C15.2972 10.6434 15.3111 10.6696 15.3139 10.7009C15.317 10.7321 15.3083 10.761 15.2885 10.7884L15.0346 11.1345C15.0145 11.1615 14.9902 11.1771 14.9614 11.1813C14.9326 11.1851 14.9059 11.1763 14.8809 11.1543L13.8609 10.252C13.8359 10.2299 13.8224 10.2033 13.8196 10.1717C13.8168 10.1401 13.8255 10.1108 13.8456 10.0834L14.0996 9.73768C14.1197 9.71027 14.1436 9.69504 14.1721 9.69199C14.2005 9.68857 14.2269 9.69809 14.2519 9.71979L15.2722 10.6213ZM15.8162 9.88006C15.8412 9.90214 15.8551 9.92841 15.8579 9.95963C15.861 9.99084 15.8523 10.0198 15.8325 10.0472L15.5786 10.3932C15.5585 10.4203 15.5342 10.4359 15.5054 10.4401C15.4766 10.4439 15.4499 10.4351 15.4249 10.413L14.4049 9.51078C14.3799 9.4887 14.3664 9.46205 14.3636 9.43045C14.3608 9.39886 14.3695 9.36916 14.3896 9.34213L14.6436 8.99607C14.6637 8.96866 14.6876 8.95343 14.7161 8.95039C14.7445 8.94696 14.7709 8.95648 14.7959 8.97818L15.8162 9.88006ZM16.6059 8.80496C16.6309 8.82704 16.6447 8.85331 16.6475 8.88453C16.6506 8.91574 16.642 8.94468 16.6222 8.97209L16.3682 9.31815C16.3481 9.34518 16.3238 9.36078 16.295 9.36497C16.2662 9.36878 16.2395 9.36002 16.2145 9.33794L15.1945 8.43568C15.1695 8.4136 15.156 8.38695 15.1532 8.35535C15.1505 8.32375 15.1591 8.29406 15.1793 8.26703L15.4332 7.92097C15.4533 7.89356 15.4773 7.87833 15.5057 7.87529C15.5342 7.87186 15.5605 7.88138 15.5855 7.90308L16.6059 8.80496ZM15.724 7.52581L15.9779 7.18013C15.998 7.15272 16.022 7.13749 16.0504 7.13445C16.0789 7.13102 16.1052 7.14054 16.1302 7.16224L17.1502 8.0645C17.1752 8.08658 17.1891 8.11285 17.1919 8.14406C17.195 8.17528 17.1863 8.20421 17.1665 8.23162L16.9126 8.57768C16.8924 8.60471 16.8682 8.62032 16.8394 8.62451C16.8106 8.62831 16.7839 8.61956 16.7589 8.59748L15.7389 7.69522C15.7139 7.67314 15.7004 7.64649 15.6976 7.61489C15.6952 7.58253 15.7038 7.55322 15.724 7.52581ZM16.133 4.76077C16.2627 4.87537 16.2829 5.08361 16.1784 5.22599L15.1956 6.56415C15.0911 6.70654 14.9014 6.72862 14.7716 6.61403L14.0972 6.01785C13.9674 5.90326 13.9473 5.69501 14.0517 5.55263L15.0346 4.21447C15.139 4.07209 15.3288 4.05001 15.4585 4.1646L16.133 4.76077ZM16.2419 6.87328C16.2392 6.84169 16.2478 6.81199 16.268 6.78496L16.5219 6.4389C16.542 6.41188 16.566 6.39627 16.5944 6.39322C16.6229 6.38979 16.6492 6.39931 16.6742 6.42101L17.6942 7.32327C17.7192 7.34535 17.7331 7.37162 17.7359 7.40284C17.739 7.43406 17.7303 7.46299 17.7105 7.4904L17.4566 7.83646C17.4364 7.86387 17.4122 7.8791 17.3834 7.88328C17.3546 7.88709 17.3279 7.87833 17.3029 7.85625L16.2829 6.95399C16.2582 6.93191 16.2447 6.90488 16.2419 6.87328ZM18.2386 6.58243C18.2635 6.60451 18.2774 6.63078 18.2802 6.66199C18.2833 6.69321 18.2746 6.72215 18.2549 6.74956L18.0009 7.09561C17.9808 7.12264 17.9565 7.13825 17.9277 7.14244C17.8989 7.14625 17.8722 7.13749 17.8472 7.11541L16.8272 6.21315C16.8022 6.19107 16.7887 6.16442 16.7859 6.13282C16.7832 6.10122 16.7918 6.07153 16.812 6.0445L17.0659 5.69844C17.086 5.67103 17.11 5.6558 17.1384 5.65276C17.1669 5.64933 17.1932 5.65885 17.2182 5.68055L18.2386 6.58243ZM15.3111 14.9681C15.1408 14.8174 15.1137 14.5436 15.2511 14.3567L19.728 8.26132C19.8654 8.0744 20.1148 8.0447 20.2852 8.19546C20.4555 8.34622 20.4826 8.61994 20.3452 8.80686L15.8683 14.9023C15.7309 15.0896 15.4814 15.1189 15.3111 14.9681ZM11.9829 12.8084C11.9579 12.7863 11.9444 12.7597 11.9416 12.7281C11.9389 12.6965 11.9475 12.6672 11.9677 12.6398L12.2216 12.2937C12.2417 12.2663 12.2657 12.2511 12.2941 12.248C12.3226 12.2446 12.3489 12.2541 12.3739 12.2758L13.3939 13.1781C13.4189 13.2002 13.4328 13.2264 13.4355 13.2576C13.4387 13.2889 13.43 13.3178 13.4102 13.3452L13.1563 13.6909C13.1361 13.7183 13.1119 13.7335 13.0831 13.7377C13.0543 13.7415 13.0275 13.7328 13.0026 13.7107L11.9829 12.8084ZM11.4389 13.5496C11.4139 13.5276 11.4004 13.5009 11.3976 13.4693C11.3952 13.4377 11.4039 13.408 11.4237 13.381L11.6776 13.0353C11.6977 13.0079 11.7217 12.9927 11.7501 12.9896C11.7786 12.9862 11.8049 12.9957 11.8299 13.0174L12.8499 13.9197C12.8749 13.9418 12.8888 13.968 12.8916 13.9992C12.8947 14.0305 12.886 14.0594 12.8662 14.0868L12.6123 14.4329C12.5921 14.4603 12.5679 14.4755 12.5391 14.4797C12.5103 14.4835 12.4836 14.4747 12.4586 14.4527L11.4389 13.5496ZM10.8946 14.2905C10.8696 14.2684 10.8561 14.2418 10.8533 14.2102C10.8505 14.1786 10.8592 14.1492 10.8793 14.1218L11.1333 13.7758C11.1534 13.7487 11.1773 13.7331 11.2058 13.7301C11.2342 13.7267 11.2606 13.7362 11.2856 13.7579L12.3056 14.6601C12.3305 14.6822 12.3444 14.7085 12.3472 14.7397C12.3503 14.7709 12.3417 14.7999 12.3219 14.8273L12.0679 15.1733C12.0478 15.2004 12.0235 15.216 11.9947 15.2202C11.9659 15.224 11.9392 15.2152 11.9142 15.1931L10.8946 14.2905ZM10.3502 15.0313C10.3252 15.0092 10.3117 14.9826 10.3089 14.951C10.3062 14.9194 10.3148 14.8897 10.335 14.8627L10.5889 14.5166C10.609 14.4892 10.633 14.474 10.6614 14.4709C10.6899 14.4675 10.7162 14.477 10.7412 14.4987L11.7612 15.401C11.7862 15.4231 11.8001 15.4493 11.8029 15.4806C11.806 15.5118 11.7973 15.5407 11.7775 15.5681L11.5236 15.9142C11.5034 15.9412 11.4792 15.9568 11.4504 15.961C11.4216 15.9648 11.3949 15.956 11.3699 15.934L10.3502 15.0313ZM11.9534 17.8474L12.5533 17.0308L12.5897 17.0631L11.9899 17.8797L11.9534 17.8474ZM11.0136 16.5557C11.0167 16.5869 11.008 16.6158 10.9882 16.6432L10.7343 16.9893C10.7142 17.0163 10.6899 17.0319 10.6611 17.0361C10.6323 17.0399 10.6056 17.0311 10.5806 17.0091L9.56059 16.1068C9.53561 16.0847 9.52208 16.0581 9.51931 16.0265C9.51653 15.9949 9.5252 15.9652 9.54533 15.9382L9.79929 15.5921C9.81941 15.5647 9.84335 15.5495 9.8718 15.5464C9.90024 15.543 9.92661 15.5525 9.95159 15.5742L10.9716 16.4765C10.9966 16.4978 11.0108 16.5244 11.0136 16.5557ZM11.1746 18.1691L11.1787 18.118L12.1311 18.2098L12.1269 18.2608L11.1746 18.1691ZM10.4696 17.2965C10.4727 17.3277 10.464 17.3566 10.4442 17.3841L10.1903 17.7301C10.1702 17.7571 10.1459 17.7728 10.1171 17.7769C10.0883 17.7807 10.0616 17.772 10.0366 17.7499L9.01659 16.8476C8.99161 16.8256 8.97808 16.7989 8.97531 16.7673C8.97253 16.7357 8.98155 16.706 9.00133 16.679L9.25529 16.3329C9.27541 16.3055 9.29935 16.2903 9.3278 16.2873C9.35625 16.2838 9.38261 16.2933 9.40759 16.315L10.4276 17.2173C10.4526 17.239 10.4664 17.2653 10.4696 17.2965ZM10.8658 19.3283L11.4656 18.5117L11.5021 18.5441L10.9022 19.3607L10.8658 19.3283ZM8.47225 17.5881C8.44727 17.566 8.43373 17.5394 8.43096 17.5078C8.42818 17.4762 8.43686 17.4469 8.45698 17.4195L8.71094 17.0734C8.73106 17.046 8.755 17.0308 8.78345 17.0277C8.8119 17.0243 8.83827 17.0338 8.86325 17.0555L9.88324 17.9578C9.90822 17.9799 9.9221 18.0061 9.92488 18.0373C9.928 18.0686 9.91933 18.0975 9.89955 18.1249L9.64559 18.4706C9.62547 18.4976 9.60118 18.5132 9.57239 18.5174C9.54359 18.5212 9.51688 18.5125 9.4919 18.4904L8.47225 17.5881ZM7.92825 18.3293C7.90327 18.3073 7.88974 18.2806 7.88696 18.249C7.88419 18.2174 7.89286 18.1877 7.91298 18.1607L8.16694 17.8146C8.18706 17.7872 8.211 17.772 8.23945 17.7689C8.2679 17.7655 8.29427 17.775 8.31925 17.7967L9.33925 18.699C9.36423 18.7211 9.3781 18.7473 9.38088 18.7786C9.384 18.8098 9.37533 18.8387 9.35555 18.8661L9.10159 19.2122C9.08147 19.2392 9.05719 19.2548 9.02839 19.259C8.99959 19.2628 8.97288 19.2541 8.9479 19.232L7.92825 18.3293ZM4.80684 15.8152L9.19596 9.83933L9.23239 9.87169L4.84362 15.8475L4.80684 15.8152ZM4.08104 15.1733L6.43641 11.9663L6.47284 11.9987L4.11747 15.2057L4.08104 15.1733Z" fill="#14D610"/>
<path d="M9.33047 16.4372L9.1095 16.7381L10.1114 17.6241L10.3324 17.3233L9.33047 16.4372Z" fill="#14D610"/>
<path d="M8.78652 17.1788L8.56555 17.4797L9.56745 18.3657L9.78842 18.0649L8.78652 17.1788Z" fill="#14D610"/>
<path d="M8.24245 17.92L8.02148 18.2208L9.02338 19.1069L9.24435 18.806L8.24245 17.92Z" fill="#14D610"/>
<path d="M6.43517 11.9655L4.07983 15.1724L4.1163 15.2046L6.47164 11.9977L6.43517 11.9655Z" fill="white"/>
<path d="M12.5522 17.0302L11.9524 17.8468L11.9889 17.8791L12.5886 17.0624L12.5522 17.0302Z" fill="white"/>
<path d="M11.4648 18.5107L10.865 19.3273L10.9015 19.3595L11.5012 18.5429L11.4648 18.5107Z" fill="white"/>
<path d="M11.1753 18.1181L11.1711 18.1693L12.1232 18.2614L12.1273 18.2102L11.1753 18.1181Z" fill="white"/>
<path d="M9.19528 9.83876L4.80615 15.8148L4.84262 15.847L9.23175 9.87101L9.19528 9.83876Z" fill="white"/>
<path d="M18.2802 6.66193C18.2771 6.63071 18.2632 6.60445 18.2386 6.58237L17.2186 5.6801C17.1936 5.65802 17.1672 5.64888 17.1388 5.65231C17.1103 5.65574 17.0864 5.67097 17.0662 5.698L16.8123 6.04405C16.7922 6.07108 16.7835 6.10078 16.7863 6.13238C16.789 6.16397 16.8026 6.191 16.8276 6.2127L17.8476 7.11497C17.8725 7.13705 17.8992 7.1458 17.928 7.14199C17.9568 7.13819 17.9811 7.12258 18.0013 7.09517L18.2552 6.74911C18.275 6.72208 18.2833 6.69315 18.2802 6.66193ZM18.1442 6.6901L17.9232 6.99086L16.9212 6.10497L17.1422 5.80421L18.1442 6.6901Z" fill="white"/>
<path d="M16.268 6.78491C16.2479 6.81232 16.2392 6.84164 16.242 6.87323C16.2447 6.90483 16.2583 6.93186 16.2832 6.95356L17.3032 7.85582C17.3282 7.8779 17.3549 7.88666 17.3837 7.88285C17.4125 7.87905 17.4368 7.86344 17.4569 7.83603L17.7109 7.48997C17.731 7.46294 17.7393 7.43363 17.7362 7.40241C17.7331 7.37119 17.7192 7.34492 17.6946 7.32284L16.6746 6.42058C16.6496 6.3985 16.6232 6.38936 16.5948 6.39279C16.5663 6.39622 16.5424 6.41144 16.5223 6.43847L16.268 6.78491ZM16.3773 6.84582L16.5983 6.54507L17.6002 7.43096L17.3792 7.73171L16.3773 6.84582Z" fill="white"/>
<path d="M15.978 7.18008L15.724 7.52576C15.7039 7.55317 15.6952 7.58248 15.698 7.61408C15.7008 7.64568 15.7143 7.67271 15.7393 7.69441L16.7593 8.59667C16.7843 8.61875 16.811 8.62751 16.8398 8.6237C16.8686 8.61989 16.8929 8.60428 16.913 8.57687L17.167 8.23081C17.1871 8.2034 17.1954 8.17447 17.1923 8.14325C17.1892 8.11204 17.1753 8.08577 17.1506 8.06369L16.1306 7.16142C16.1057 7.13934 16.0793 7.13021 16.0508 7.13363C16.0221 7.13744 15.9981 7.15267 15.978 7.18008ZM17.0559 8.17181L16.8349 8.47256L15.833 7.58667L16.054 7.28591L17.0559 8.17181Z" fill="white"/>
<path d="M16.6479 8.88446C16.6447 8.85325 16.6309 8.82698 16.6062 8.8049L15.5862 7.90264C15.5613 7.88056 15.5349 7.87142 15.5064 7.87485C15.478 7.87827 15.4541 7.8935 15.4339 7.92053L15.18 8.26659C15.1598 8.29362 15.1512 8.32331 15.1539 8.35491C15.1567 8.38651 15.1703 8.41354 15.1952 8.43524L16.2152 9.3375C16.2402 9.35958 16.2669 9.36834 16.2957 9.36453C16.3245 9.36072 16.3488 9.34511 16.3689 9.3177L16.6229 8.97164C16.6423 8.945 16.651 8.91568 16.6479 8.88446ZM16.5119 8.91302L16.2909 9.21377L15.2889 8.32788L15.5099 8.02713L16.5119 8.91302Z" fill="white"/>
<path d="M15.8582 9.95954C15.8551 9.92832 15.8412 9.90205 15.8166 9.87997L14.7966 8.97771C14.7716 8.95563 14.7452 8.94649 14.7168 8.94992C14.6883 8.95334 14.6644 8.96857 14.6443 8.9956L14.3903 9.34166C14.3702 9.36869 14.3615 9.39839 14.3643 9.42998C14.367 9.46158 14.3806 9.48861 14.4056 9.51031L15.4256 10.4126C15.4505 10.4347 15.4773 10.4434 15.506 10.4396C15.5348 10.4358 15.5591 10.4202 15.5793 10.3928L15.8332 10.0467C15.8526 10.0201 15.8613 9.99076 15.8582 9.95954ZM15.7222 9.98809L15.5012 10.2888L14.4992 9.40295L14.7202 9.1022L15.7222 9.98809Z" fill="white"/>
<path d="M15.3139 10.7008C15.3108 10.6696 15.2969 10.6433 15.2722 10.6212L14.2522 9.71898C14.2273 9.6969 14.2009 9.68776 14.1724 9.69119C14.144 9.69462 14.1201 9.70985 14.0999 9.73688L13.846 10.0826C13.8259 10.1096 13.8172 10.1393 13.82 10.1709C13.8227 10.2025 13.8363 10.2295 13.8612 10.2512L14.8812 11.1535C14.9062 11.1755 14.9329 11.1843 14.9617 11.1805C14.9905 11.1767 15.0148 11.1611 15.0349 11.1337L15.2889 10.7876C15.3087 10.761 15.317 10.7316 15.3139 10.7008ZM15.1779 10.729L14.9569 11.0297L13.9549 10.1438L14.1759 9.84309L15.1779 10.729Z" fill="white"/>
<path d="M14.7699 11.4416C14.7668 11.4104 14.7529 11.3841 14.7283 11.362L13.7083 10.4598C13.6833 10.4377 13.657 10.4285 13.6285 10.432C13.6001 10.4354 13.5761 10.4506 13.556 10.4777L13.302 10.8233C13.2819 10.8507 13.2732 10.8801 13.276 10.9117C13.2788 10.9433 13.2923 10.9703 13.3173 10.992L14.3373 11.8942C14.3623 11.9163 14.389 11.9251 14.4178 11.9213C14.4466 11.9175 14.4709 11.9019 14.491 11.8744L14.745 11.5288C14.7644 11.5017 14.7727 11.4728 14.7699 11.4416ZM14.6339 11.4698L14.4129 11.7705L13.411 10.8846L13.632 10.5839L14.6339 11.4698Z" fill="white"/>
<path d="M14.2256 12.1824C14.2225 12.1512 14.2086 12.125 14.184 12.1029L13.164 11.2006C13.139 11.1785 13.1126 11.1694 13.0842 11.1728C13.0557 11.1762 13.0318 11.1915 13.0117 11.2185L12.7577 11.5646C12.7376 11.5916 12.7289 11.6213 12.7317 11.6529C12.7345 11.6845 12.748 11.7115 12.773 11.7332L13.793 12.6355C13.818 12.6576 13.8447 12.6663 13.8735 12.6625C13.9023 12.6587 13.9266 12.6431 13.9467 12.6157L14.2006 12.27C14.2201 12.2426 14.2287 12.2137 14.2256 12.1824ZM14.0896 12.2106L13.8686 12.5114L12.8667 11.6255L13.0877 11.3247L14.0896 12.2106Z" fill="white"/>
<path d="M11.9417 12.728C11.9445 12.7596 11.958 12.7866 11.983 12.8083L13.003 13.7106C13.0279 13.7327 13.0547 13.7414 13.0835 13.7376C13.1123 13.7338 13.1365 13.7182 13.1567 13.6908L13.4106 13.3451C13.4307 13.3177 13.4391 13.2888 13.4359 13.2576C13.4328 13.2264 13.4189 13.2001 13.3943 13.178L12.3743 12.2757C12.3493 12.2537 12.323 12.2445 12.2945 12.248C12.2661 12.2514 12.2421 12.2666 12.222 12.2936L11.968 12.6397C11.9479 12.6671 11.9393 12.6964 11.9417 12.728ZM12.0773 12.7006L12.2983 12.3999L13.3003 13.2857L13.0793 13.5865L12.0773 12.7006Z" fill="white"/>
<path d="M11.3976 13.4689C11.4004 13.5005 11.4139 13.5275 11.4389 13.5492L12.4589 14.4515C12.4839 14.4735 12.5106 14.4823 12.5394 14.4785C12.5682 14.4747 12.5925 14.4591 12.6126 14.4317L12.8665 14.0856C12.8867 14.0582 12.895 14.0293 12.8919 13.9981C12.8887 13.9668 12.8749 13.9406 12.8502 13.9185L11.8302 13.0162C11.8053 12.9941 11.7789 12.985 11.7504 12.9884C11.722 12.9919 11.6981 13.0071 11.6779 13.0341L11.424 13.3798C11.4035 13.408 11.3948 13.4373 11.3976 13.4689ZM11.5329 13.4415L11.7539 13.1407L12.7559 14.0266L12.5349 14.3274L11.5329 13.4415Z" fill="white"/>
<path d="M10.8533 14.2101C10.8561 14.2417 10.8696 14.2687 10.8946 14.2904L11.9146 15.1927C11.9396 15.2148 11.9663 15.2235 11.9951 15.2197C12.0239 15.2159 12.0482 15.2003 12.0683 15.1729L12.3222 14.8268C12.3424 14.7998 12.3507 14.7705 12.3476 14.7393C12.3444 14.708 12.3306 14.6818 12.3059 14.6597L11.2859 13.7574C11.261 13.7354 11.2346 13.7262 11.2061 13.7296C11.1777 13.7331 11.1538 13.7483 11.1336 13.7753L10.8797 14.1214C10.8595 14.1488 10.8509 14.1781 10.8533 14.2101ZM10.989 14.1827L11.21 13.8819L12.2119 14.7678L11.9909 15.0686L10.989 14.1827Z" fill="white"/>
<path d="M10.3093 14.9509C10.3121 14.9825 10.3257 15.0096 10.3506 15.0313L11.3706 15.9335C11.3956 15.9556 11.4223 15.9644 11.4511 15.9606C11.4799 15.9567 11.5042 15.9411 11.5243 15.9137L11.7783 15.5677C11.7984 15.5403 11.8067 15.5113 11.8036 15.4801C11.8005 15.4489 11.7866 15.4226 11.762 15.4005L10.742 14.4983C10.717 14.4762 10.6906 14.4671 10.6622 14.4705C10.6337 14.4739 10.6098 14.4891 10.5897 14.5162L10.3357 14.8622C10.3152 14.8896 10.3066 14.9193 10.3093 14.9509ZM10.4446 14.9235L10.6656 14.6228L11.6676 15.5087L11.4466 15.8094L10.4446 14.9235Z" fill="white"/>
<path d="M10.9883 16.6432C11.0084 16.6158 11.0167 16.5868 11.0136 16.5556C11.0105 16.5244 10.9966 16.4981 10.972 16.476L9.95196 15.5738C9.92698 15.5517 9.90061 15.5426 9.87216 15.546C9.84371 15.5494 9.81977 15.5646 9.79965 15.5917L9.54569 15.9377C9.52557 15.9648 9.51689 15.9945 9.51967 16.0261C9.52245 16.0577 9.53598 16.0847 9.56096 16.1064L10.581 17.0086C10.6059 17.0307 10.6326 17.0395 10.6614 17.0357C10.6902 17.0319 10.7145 17.0163 10.7346 16.9888L10.9883 16.6432ZM10.8776 16.5838L10.6566 16.8845L9.65463 15.9986L9.87563 15.6979L10.8776 16.5838Z" fill="white"/>
<path d="M10.4443 17.384C10.4644 17.3566 10.4728 17.3277 10.4696 17.2965C10.4665 17.2652 10.4526 17.239 10.428 17.2169L9.40801 16.3146C9.38303 16.2925 9.35666 16.2834 9.32821 16.2868C9.29976 16.2903 9.27582 16.3055 9.2557 16.3325L9.00174 16.6786C8.98162 16.7056 8.97295 16.7353 8.97572 16.7669C8.9785 16.7985 8.99203 16.8255 9.01701 16.8472L10.037 17.7495C10.062 17.7716 10.0887 17.7803 10.1175 17.7765C10.1463 17.7727 10.1706 17.7571 10.1907 17.7297L10.4443 17.384ZM10.3336 17.3246L10.1126 17.6254L9.11068 16.7395L9.33168 16.4387L10.3336 17.3246Z" fill="white"/>
<path d="M8.43129 17.5077C8.43407 17.5393 8.4476 17.5663 8.47258 17.588L9.49258 18.4903C9.51756 18.5123 9.54427 18.5211 9.57307 18.5173C9.60186 18.5135 9.62615 18.4979 9.64627 18.4705L9.90023 18.1248C9.92035 18.0974 9.92868 18.0685 9.92556 18.0372C9.92243 18.006 9.90855 17.9797 9.88392 17.9577L8.86392 17.0554C8.83894 17.0333 8.81258 17.0242 8.78413 17.0276C8.75568 17.031 8.73174 17.0463 8.71162 17.0733L8.45766 17.4194C8.43719 17.4468 8.42851 17.4761 8.43129 17.5077ZM8.5666 17.4803L8.7876 17.1795L9.78955 18.0654L9.56856 18.3662L8.5666 17.4803Z" fill="white"/>
<path d="M7.88699 18.2486C7.88977 18.2802 7.9033 18.3072 7.92828 18.3289L8.94828 19.2312C8.97326 19.2533 8.99997 19.262 9.02877 19.2582C9.05756 19.2544 9.08185 19.2388 9.10197 19.2114L9.35593 18.8653C9.37605 18.8379 9.38438 18.809 9.38126 18.7778C9.37813 18.7466 9.36426 18.7203 9.33963 18.6982L8.31963 17.7959C8.29465 17.7739 8.26828 17.7647 8.23983 17.7682C8.21138 17.7716 8.18744 17.7868 8.16732 17.8138L7.91336 18.1599C7.89324 18.1877 7.88457 18.217 7.88699 18.2486ZM8.0223 18.2212L8.2433 17.9204L9.24526 18.8063L9.02426 19.1071L8.0223 18.2212Z" fill="white"/>
<path d="M15.2511 14.3567L19.728 8.26127C19.8654 8.07435 20.1149 8.04465 20.2852 8.19541C20.4556 8.34617 20.4826 8.61989 20.3452 8.80681L15.8683 14.9022C15.731 15.0891 15.4815 15.1188 15.3112 14.9681C15.1408 14.8173 15.1138 14.5436 15.2511 14.3567Z" fill="#216356"/>
<path d="M16.1784 5.22553L15.1955 6.56369C15.0911 6.70607 14.9013 6.72815 14.7716 6.61356L14.0971 6.01738C13.9674 5.90279 13.9472 5.69455 14.0517 5.55217L15.0346 4.214C15.139 4.07162 15.3288 4.04954 15.4585 4.16413L16.133 4.76031C16.2624 4.87528 16.2828 5.08353 16.1784 5.22553Z" fill="#216356"/>
<path d="M0 16.6882V31.7746C0 33.3899 1.19312 34.6991 2.66518 34.6991H25.3071C26.7791 34.6991 27.9723 33.3899 27.9723 31.7746V28.3391L22.5316 27.1784C21.2718 26.9096 20.3479 25.7938 20.2501 24.4644C20.2477 24.4335 20.2456 24.4027 20.2442 24.3718C20.2439 24.365 20.2439 24.3578 20.2435 24.3509C20.2421 24.3113 20.2411 24.2713 20.2411 24.2314C20.2411 24.1914 20.2421 24.1514 20.2435 24.1118C20.2439 24.105 20.2439 24.0977 20.2442 24.0909C20.2456 24.0597 20.2477 24.0288 20.2501 23.9984C20.3476 22.669 21.2718 21.5531 22.5316 21.2844L27.9723 20.1236V16.6882C27.9723 15.0728 26.7791 13.7636 25.3071 13.7636H2.66518C1.19312 13.7636 0 15.0732 0 16.6882ZM27.0879 17.2699C27.0879 17.2238 27.1219 17.1861 27.1642 17.1861C27.2062 17.1861 27.2406 17.2234 27.2406 17.2699V18.6096C27.2406 18.6556 27.2066 18.6933 27.1642 18.6933C27.1223 18.6933 27.0879 18.656 27.0879 18.6096V17.2699ZM26.1314 14.9244C26.1533 14.8848 26.2001 14.8722 26.2362 14.8962C26.6022 15.1398 26.8874 15.495 27.0615 15.9229C27.0785 15.9652 27.0616 16.0147 27.023 16.0334C27.013 16.0383 27.0022 16.0406 26.9922 16.0406C26.963 16.0406 26.9349 16.0219 26.9224 15.9911C26.7611 15.5944 26.4967 15.2655 26.1574 15.0393C26.121 15.0154 26.1096 14.9636 26.1314 14.9244ZM23.7316 14.6499C23.7316 14.6038 23.7656 14.5661 23.808 14.5661H25.0288C25.0708 14.5661 25.1052 14.6034 25.1052 14.6499C25.1052 14.6959 25.0712 14.7336 25.0288 14.7336H23.808C23.766 14.7336 23.7316 14.6963 23.7316 14.6499ZM21.2899 14.6499C21.2899 14.6038 21.3239 14.5661 21.3662 14.5661H22.5871C22.6291 14.5661 22.6634 14.6034 22.6634 14.6499C22.6634 14.6959 22.6294 14.7336 22.5871 14.7336H21.3662C21.3239 14.7336 21.2899 14.6963 21.2899 14.6499ZM27.1642 30.701C27.1223 30.701 27.0879 30.6637 27.0879 30.6172V29.2776C27.0879 29.2315 27.1219 29.1938 27.1642 29.1938C27.2062 29.1938 27.2406 29.2315 27.2406 29.2776V30.6172C27.2406 30.6637 27.2066 30.701 27.1642 30.701ZM26.5495 33.0785C26.8253 32.7636 27.0033 32.3711 27.0647 31.9428C27.0713 31.8972 27.1101 31.8659 27.1518 31.8732C27.1934 31.8804 27.2218 31.923 27.2152 31.9687C27.149 32.4309 26.9568 32.855 26.6594 33.1946C26.6445 33.2117 26.6244 33.2205 26.6043 33.2205C26.5852 33.2205 26.5661 33.2129 26.5516 33.1973C26.5214 33.1645 26.5203 33.1116 26.5495 33.0785ZM24.2562 33.8128C24.2562 33.7668 24.2902 33.7291 24.3325 33.7291H25.1593C25.2859 33.7291 25.4126 33.7154 25.5357 33.6887C25.577 33.6796 25.6172 33.7093 25.6256 33.7546C25.6339 33.7999 25.6068 33.8441 25.5655 33.8532C25.4327 33.8821 25.296 33.897 25.1593 33.897H24.3325C24.2906 33.8966 24.2562 33.8593 24.2562 33.8128ZM21.8145 33.8128C21.8145 33.7668 21.8485 33.7291 21.8908 33.7291H23.1117C23.1536 33.7291 23.188 33.7668 23.188 33.8128C23.188 33.8589 23.154 33.8966 23.1117 33.8966H21.8908C21.8485 33.8966 21.8145 33.8593 21.8145 33.8128ZM19.3724 33.8128C19.3724 33.7668 19.4064 33.7291 19.4487 33.7291H20.6696C20.7115 33.7291 20.7459 33.7668 20.7459 33.8128C20.7459 33.8589 20.7119 33.8966 20.6696 33.8966H19.4487C19.4067 33.8966 19.3724 33.8593 19.3724 33.8128ZM18.8478 14.6499C18.8478 14.6038 18.8821 14.5661 18.9241 14.5661H20.145C20.187 14.5661 20.2213 14.6034 20.2213 14.6499C20.2213 14.6959 20.1873 14.7336 20.145 14.7336H18.9241C18.8821 14.7336 18.8478 14.6963 18.8478 14.6499ZM16.9306 33.8128C16.9306 33.7668 16.9646 33.7291 17.0069 33.7291H18.2278C18.2698 33.7291 18.3041 33.7668 18.3041 33.8128C18.3041 33.8589 18.2698 33.8966 18.2278 33.8966H17.0069C16.9646 33.8966 16.9306 33.8593 16.9306 33.8128ZM16.406 14.6499C16.406 14.6038 16.44 14.5661 16.4824 14.5661H17.7032C17.7452 14.5661 17.7796 14.6034 17.7796 14.6499C17.7796 14.6959 17.7456 14.7336 17.7032 14.7336H16.4824C16.44 14.7336 16.406 14.6963 16.406 14.6499ZM14.4885 33.8128C14.4885 33.7668 14.5225 33.7291 14.5648 33.7291H15.7857C15.8277 33.7291 15.862 33.7668 15.862 33.8128C15.862 33.8589 15.8277 33.8966 15.7857 33.8966H14.5648C14.5228 33.8966 14.4885 33.8593 14.4885 33.8128ZM13.9639 14.6499C13.9639 14.6038 13.9983 14.5661 14.0403 14.5661H15.2611C15.3031 14.5661 15.3375 14.6034 15.3375 14.6499C15.3375 14.6959 15.3031 14.7336 15.2611 14.7336H14.0403C13.9983 14.7336 13.9639 14.6963 13.9639 14.6499ZM12.0467 33.8128C12.0467 33.7668 12.0811 33.7291 12.1231 33.7291H13.3439C13.3859 33.7291 13.4203 33.7668 13.4203 33.8128C13.4203 33.8589 13.3863 33.8966 13.3439 33.8966H12.1231C12.0807 33.8966 12.0467 33.8593 12.0467 33.8128ZM11.5222 14.6499C11.5222 14.6038 11.5562 14.5661 11.5985 14.5661H12.8194C12.8614 14.5661 12.8957 14.6034 12.8957 14.6499C12.8957 14.6959 12.8614 14.7336 12.8194 14.7336H11.5985C11.5562 14.7336 11.5222 14.6963 11.5222 14.6499ZM9.60465 33.8128C9.60465 33.7668 9.63899 33.7291 9.68097 33.7291H10.9019C10.9438 33.7291 10.9782 33.7668 10.9782 33.8128C10.9782 33.8589 10.9442 33.8966 10.9019 33.8966H9.68097C9.63899 33.8966 9.60465 33.8593 9.60465 33.8128ZM9.08008 14.6499C9.08008 14.6038 9.11408 14.5661 9.1564 14.5661H10.3773C10.4193 14.5661 10.4536 14.6034 10.4536 14.6499C10.4536 14.6959 10.4193 14.7336 10.3773 14.7336H9.1564C9.11442 14.7336 9.08008 14.6963 9.08008 14.6499ZM7.16289 33.8128C7.16289 33.7668 7.19724 33.7291 7.23922 33.7291H8.4601C8.50208 33.7291 8.53642 33.7668 8.53642 33.8128C8.53642 33.8589 8.50243 33.8966 8.4601 33.8966H7.23922C7.19689 33.8966 7.16289 33.8593 7.16289 33.8128ZM6.63832 14.6499C6.63832 14.6038 6.67232 14.5661 6.71465 14.5661H7.93553C7.97751 14.5661 8.01185 14.6034 8.01185 14.6499C8.01185 14.6959 7.97751 14.7336 7.93553 14.7336H6.71465C6.67232 14.7336 6.63832 14.6963 6.63832 14.6499ZM4.72079 33.8128C4.72079 33.7668 4.75514 33.7291 4.79712 33.7291H6.018C6.05998 33.7291 6.09432 33.7668 6.09432 33.8128C6.09432 33.8589 6.05998 33.8966 6.018 33.8966H4.79712C4.75514 33.8966 4.72079 33.8593 4.72079 33.8128ZM4.19622 14.6499C4.19622 14.6038 4.23057 14.5661 4.27255 14.5661H5.49343C5.53541 14.5661 5.56975 14.6034 5.56975 14.6499C5.56975 14.6959 5.53575 14.7336 5.49343 14.7336H4.27255C4.23057 14.7336 4.19622 14.6963 4.19622 14.6499ZM2.28494 33.7375C2.29431 33.6925 2.33524 33.6644 2.37653 33.6747C2.51843 33.7108 2.66518 33.7291 2.81229 33.7291H3.57624C3.61822 33.7291 3.65257 33.7668 3.65257 33.8128C3.65257 33.8589 3.61857 33.8966 3.57624 33.8966H2.81229C2.65373 33.8966 2.49553 33.8768 2.34218 33.838C2.30124 33.8273 2.27557 33.7824 2.28494 33.7375ZM1.83392 14.8345C2.13333 14.659 2.47159 14.5661 2.81229 14.5661H3.05167C3.09365 14.5661 3.128 14.6034 3.128 14.6499C3.128 14.6959 3.094 14.7336 3.05167 14.7336H2.81229C2.49657 14.7336 2.18294 14.8197 1.90573 14.9822C1.89429 14.9891 1.88214 14.9921 1.86965 14.9921C1.84224 14.9921 1.81588 14.9761 1.80235 14.948C1.78257 14.9072 1.7968 14.8566 1.83392 14.8345ZM0.813573 31.8043C0.855206 31.7982 0.893715 31.8309 0.898919 31.877C0.947837 32.3072 1.11472 32.7058 1.38116 33.0297C1.40927 33.064 1.40684 33.1169 1.37561 33.1481C1.36104 33.1626 1.34265 33.1698 1.32461 33.1698C1.3038 33.1698 1.28298 33.1607 1.26806 33.1421C0.98045 32.7926 0.800389 32.3624 0.747654 31.8979C0.742103 31.8519 0.771594 31.81 0.813573 31.8043ZM0.731349 29.2083C0.731349 29.1622 0.765694 29.1245 0.807674 29.1245C0.849653 29.1245 0.884003 29.1622 0.884003 29.2083V30.548C0.884003 30.594 0.849653 30.6317 0.807674 30.6317C0.765694 30.6317 0.731349 30.5944 0.731349 30.548V29.2083ZM0.731349 26.5289C0.731349 26.4828 0.765694 26.4451 0.807674 26.4451C0.849653 26.4451 0.884003 26.4828 0.884003 26.5289V27.8686C0.884003 27.9146 0.849653 27.9523 0.807674 27.9523C0.765694 27.9523 0.731349 27.9146 0.731349 27.8686V26.5289ZM0.731349 23.8491C0.731349 23.8031 0.765694 23.7654 0.807674 23.7654C0.849653 23.7654 0.884003 23.8027 0.884003 23.8491V25.1888C0.884003 25.2349 0.849653 25.2726 0.807674 25.2726C0.765694 25.2726 0.731349 25.2349 0.731349 25.1888V23.8491ZM0.731349 21.1698C0.731349 21.1237 0.765694 21.086 0.807674 21.086C0.849653 21.086 0.884003 21.1233 0.884003 21.1698V22.5095C0.884003 22.5555 0.849653 22.5932 0.807674 22.5932C0.765694 22.5932 0.731349 22.5559 0.731349 22.5095V21.1698ZM0.731349 18.49C0.731349 18.444 0.765694 18.4063 0.807674 18.4063C0.849653 18.4063 0.884003 18.4436 0.884003 18.49V19.8297C0.884003 19.8758 0.849653 19.9135 0.807674 19.9135C0.765694 19.9135 0.731349 19.8761 0.731349 19.8297V18.49ZM0.731349 16.85C0.731349 16.4845 0.808021 16.135 0.959286 15.811C0.978367 15.7699 1.02451 15.7535 1.06198 15.7749C1.09945 15.7958 1.11437 15.8464 1.09494 15.8875C0.954777 16.1875 0.883656 16.5111 0.883656 16.85V17.1507C0.883656 17.1968 0.849306 17.2345 0.807327 17.2345C0.765347 17.2345 0.731002 17.1972 0.731002 17.1507V16.85H0.731349Z" fill="#353F47"/>
<path d="M22.7495 21.479C21.4356 21.479 20.358 22.5872 20.2501 23.9984C20.3476 22.669 21.2719 21.5532 22.5316 21.2844L27.9723 20.1237V21.4809C27.9581 21.4797 27.9438 21.4793 27.9296 21.4793H22.7495V21.479Z" fill="#1D1D1B"/>
<path d="M20.2435 24.351C20.2439 24.3578 20.2439 24.365 20.2443 24.3719C20.2439 24.3647 20.2439 24.3578 20.2435 24.351Z" fill="#557C78"/>
<path d="M20.2501 24.4644C20.358 25.8757 21.4356 26.9839 22.7495 26.9839H27.9293C27.9435 26.9839 27.9577 26.9831 27.9719 26.9824V28.3396L22.5312 27.1788C21.2719 26.9097 20.3476 25.7938 20.2501 24.4644Z" fill="#1D1D1B"/>
<path d="M20.2443 24.0913C20.2439 24.0982 20.2439 24.1054 20.2435 24.1122C20.2439 24.105 20.2439 24.0982 20.2443 24.0913Z" fill="#557C78"/>
<path d="M28.5992 22.2141V26.2491C28.5992 26.6393 28.322 26.9584 27.9719 26.9823V21.4808C28.322 21.5048 28.5992 21.8238 28.5992 22.2141Z" fill="#353F47"/>
<path d="M20.2507 23.9984C20.2481 24.0292 20.2458 24.0601 20.2443 24.0909C20.2458 24.0601 20.2481 24.0292 20.2507 23.9984Z" fill="#73A6A2"/>
<path d="M20.2443 24.3719C20.2458 24.4031 20.2481 24.4336 20.2507 24.4644C20.2481 24.4336 20.2458 24.4027 20.2443 24.3719Z" fill="#73A6A2"/>
<path d="M20.2411 24.2314C20.2411 24.2714 20.2422 24.3113 20.2438 24.3509C20.2418 24.3113 20.2411 24.2714 20.2411 24.2314Z" fill="#73A6A2"/>
<path d="M20.2411 24.2314C20.2411 24.1914 20.2422 24.1515 20.2438 24.1119C20.2422 24.1519 20.2411 24.1914 20.2411 24.2314Z" fill="#73A6A2"/>
<path d="M27.9292 26.9839C27.9435 26.9839 27.9577 26.9831 27.9719 26.9823V21.4808C27.9577 21.4797 27.9435 21.4793 27.9292 21.4793H22.7495C21.4356 21.4793 20.358 22.5875 20.2501 23.9988C20.2477 24.0296 20.2456 24.0605 20.2442 24.0913C20.2439 24.0982 20.2439 24.1054 20.2435 24.1122C20.2421 24.1518 20.2411 24.1918 20.2411 24.2318C20.2411 24.2718 20.2421 24.3117 20.2435 24.3513C20.2439 24.3582 20.2439 24.3654 20.2442 24.3723C20.2456 24.4035 20.2477 24.4339 20.2501 24.4648C20.358 25.876 21.4356 26.9842 22.7495 26.9842H27.9292V26.9839ZM24.6361 24.2314C24.6361 25.3023 23.8447 26.1707 22.8688 26.1707C21.8929 26.1707 21.1015 25.3023 21.1015 24.2314C21.1015 23.1605 21.8929 22.2921 22.8688 22.2921C23.8447 22.2921 24.6361 23.1605 24.6361 24.2314Z" fill="#353F47"/>
<path d="M23.2123 22.8559C23.0142 22.7486 22.7984 22.6778 22.5687 22.634C22.7987 22.591 23.0423 22.6195 23.2688 22.7056C23.4957 22.792 23.7056 22.937 23.8767 23.1251C24.0477 23.3132 24.1799 23.5435 24.2587 23.7921C24.3371 24.0407 24.3631 24.3079 24.3242 24.5603C24.2847 24.3083 24.2202 24.0715 24.1223 23.8541C24.0252 23.6368 23.8972 23.4399 23.7435 23.2713C23.5898 23.103 23.4104 22.9622 23.2123 22.8559Z" fill="#353F47"/>
<path d="M24.636 24.2313C24.636 23.1604 23.8447 22.2921 22.8687 22.2921C21.8928 22.2921 21.1014 23.1604 21.1014 24.2313C21.1014 25.3023 21.8928 26.1706 22.8687 26.1706C23.8447 26.1706 24.636 25.3023 24.636 24.2313ZM24.1226 23.8541C24.0254 23.6367 23.8974 23.4399 23.7437 23.2712C23.5897 23.1026 23.4103 22.9621 23.2122 22.8559C23.0141 22.7485 22.7983 22.6777 22.5686 22.6339C22.7987 22.5909 23.0422 22.6195 23.2688 22.7055C23.4957 22.7919 23.7056 22.937 23.8766 23.125C24.0476 23.3131 24.1798 23.5434 24.2586 23.792C24.337 24.0406 24.363 24.3079 24.3242 24.5603C24.2849 24.3086 24.2204 24.0714 24.1226 23.8541Z" fill="#1D1D1B"/>
<path d="M27.0646 31.9428C27.0712 31.8971 27.1101 31.8659 27.1517 31.8731C27.1933 31.8803 27.2218 31.923 27.2152 31.9687C27.1489 32.4308 26.9567 32.8549 26.6594 33.1945C26.6445 33.2117 26.6244 33.2204 26.6042 33.2204C26.5852 33.2204 26.5661 33.2128 26.5515 33.1972C26.521 33.1652 26.5203 33.1123 26.5494 33.0788C26.8252 32.7636 27.0032 32.3707 27.0646 31.9428Z" fill="white"/>
<path d="M27.0879 30.6172V29.2775C27.0879 29.2315 27.1219 29.1938 27.1642 29.1938C27.2062 29.1938 27.2405 29.2315 27.2405 29.2775V30.6172C27.2405 30.6633 27.2065 30.701 27.1642 30.701C27.1222 30.701 27.0879 30.6637 27.0879 30.6172Z" fill="white"/>
<path d="M24.3324 33.7291H25.1592C25.2858 33.7291 25.4124 33.7154 25.5356 33.6887C25.5769 33.6796 25.6171 33.7093 25.6255 33.7546C25.6338 33.7999 25.6067 33.844 25.5654 33.8532C25.4326 33.8821 25.2959 33.897 25.1592 33.897H24.3324C24.2905 33.897 24.2561 33.8597 24.2561 33.8132C24.2561 33.7668 24.2905 33.7291 24.3324 33.7291Z" fill="white"/>
<path d="M21.8908 33.7291H23.1117C23.1536 33.7291 23.188 33.7668 23.188 33.8128C23.188 33.8589 23.154 33.8966 23.1117 33.8966H21.8908C21.8488 33.8966 21.8145 33.8593 21.8145 33.8128C21.8145 33.7664 21.8485 33.7291 21.8908 33.7291Z" fill="white"/>
<path d="M26.2361 14.8962C26.6021 15.1398 26.8873 15.495 27.0615 15.9229C27.0785 15.9652 27.0615 16.0147 27.023 16.0334C27.0129 16.0383 27.0022 16.0406 26.9921 16.0406C26.963 16.0406 26.9349 16.0219 26.9224 15.9911C26.761 15.5944 26.4967 15.2655 26.1574 15.0393C26.1213 15.0154 26.1098 14.964 26.1317 14.9244C26.1532 14.8848 26.2 14.8722 26.2361 14.8962Z" fill="white"/>
<path d="M21.3661 14.5661H22.587C22.629 14.5661 22.6633 14.6034 22.6633 14.6499C22.6633 14.6959 22.6293 14.7336 22.587 14.7336H21.3661C21.3241 14.7336 21.2898 14.6963 21.2898 14.6499C21.2898 14.6038 21.3238 14.5661 21.3661 14.5661Z" fill="white"/>
<path d="M27.1642 17.1861C27.2062 17.1861 27.2405 17.2234 27.2405 17.2698V18.6095C27.2405 18.6556 27.2065 18.6933 27.1642 18.6933C27.1222 18.6933 27.0879 18.656 27.0879 18.6095V17.2698C27.0879 17.2234 27.1222 17.1861 27.1642 17.1861Z" fill="white"/>
<path d="M19.4486 33.7291H20.6695C20.7115 33.7291 20.7458 33.7668 20.7458 33.8128C20.7458 33.8589 20.7118 33.8966 20.6695 33.8966H19.4486C19.4067 33.8966 19.3723 33.8593 19.3723 33.8128C19.3723 33.7664 19.4067 33.7291 19.4486 33.7291Z" fill="white"/>
<path d="M23.8079 14.5661H25.0288C25.0708 14.5661 25.1051 14.6034 25.1051 14.6499C25.1051 14.6959 25.0711 14.7336 25.0288 14.7336H23.8079C23.7659 14.7336 23.7316 14.6963 23.7316 14.6499C23.7316 14.6038 23.7659 14.5661 23.8079 14.5661Z" fill="white"/>
<path d="M11.5984 14.5661H12.8193C12.8613 14.5661 12.8956 14.6034 12.8956 14.6499C12.8956 14.6959 12.8613 14.7336 12.8193 14.7336H11.5984C11.5564 14.7336 11.5221 14.6963 11.5221 14.6499C11.5221 14.6038 11.5561 14.5661 11.5984 14.5661Z" fill="white"/>
<path d="M0.807648 29.1245C0.849628 29.1245 0.883977 29.1622 0.883977 29.2083V30.548C0.883977 30.594 0.849628 30.6317 0.807648 30.6317C0.765668 30.6317 0.731323 30.5944 0.731323 30.548V29.2083C0.731323 29.1622 0.765322 29.1245 0.807648 29.1245Z" fill="white"/>
<path d="M18.9241 14.5661H20.145C20.187 14.5661 20.2213 14.6034 20.2213 14.6499C20.2213 14.6959 20.1873 14.7336 20.145 14.7336H18.9241C18.8821 14.7336 18.8478 14.6963 18.8478 14.6499C18.8478 14.6038 18.8821 14.5661 18.9241 14.5661Z" fill="white"/>
<path d="M0.813905 31.8043C0.855537 31.7982 0.894046 31.8309 0.89925 31.877C0.948169 32.3072 1.11505 32.7058 1.3815 33.0297C1.4096 33.064 1.40717 33.1169 1.37594 33.1481C1.36137 33.1626 1.34299 33.1698 1.32494 33.1698C1.30413 33.1698 1.28331 33.1607 1.26839 33.142C0.980781 32.7926 0.80072 32.3624 0.747986 31.8979C0.742435 31.8518 0.771925 31.81 0.813905 31.8043Z" fill="white"/>
<path d="M1.83383 14.8345C2.13324 14.659 2.4715 14.5661 2.81219 14.5661H3.05158C3.09356 14.5661 3.12791 14.6034 3.12791 14.6499C3.12791 14.6959 3.09391 14.7336 3.05158 14.7336H2.81219C2.49648 14.7336 2.18285 14.8196 1.90564 14.9822C1.89419 14.9891 1.88205 14.9921 1.86956 14.9921C1.84215 14.9921 1.81579 14.9761 1.80226 14.9479C1.78248 14.9072 1.79671 14.8566 1.83383 14.8345Z" fill="white"/>
<path d="M2.37648 33.6746C2.51837 33.7108 2.66513 33.7291 2.81223 33.7291H3.57619C3.61817 33.7291 3.65252 33.7668 3.65252 33.8128C3.65252 33.8589 3.61852 33.8966 3.57619 33.8966H2.81223C2.65368 33.8966 2.49548 33.8768 2.34213 33.8379C2.30119 33.8277 2.27552 33.7824 2.28489 33.7374C2.2946 33.6921 2.33554 33.6643 2.37648 33.6746Z" fill="white"/>
<path d="M0.807648 26.4451C0.849628 26.4451 0.883977 26.4828 0.883977 26.5289V27.8686C0.883977 27.9146 0.849628 27.9523 0.807648 27.9523C0.765668 27.9523 0.731323 27.9146 0.731323 27.8686V26.5289C0.731323 26.4824 0.765322 26.4451 0.807648 26.4451Z" fill="white"/>
<path d="M1.06194 15.7748C1.09941 15.7957 1.11432 15.8464 1.0949 15.8875C0.954732 16.1875 0.883611 16.5111 0.883611 16.8499V17.1507C0.883611 17.1967 0.849261 17.2344 0.807282 17.2344C0.765302 17.2344 0.730957 17.1971 0.730957 17.1507V16.8499C0.730957 16.4844 0.807629 16.1349 0.958894 15.811C0.978322 15.7699 1.02447 15.7535 1.06194 15.7748Z" fill="white"/>
<path d="M0.807648 18.4066C0.849628 18.4066 0.883977 18.4439 0.883977 18.4904V19.8301C0.883977 19.8761 0.849628 19.9138 0.807648 19.9138C0.765668 19.9138 0.731323 19.8765 0.731323 19.8301V18.4904C0.731323 18.4439 0.765322 18.4066 0.807648 18.4066Z" fill="white"/>
<path d="M0.807648 21.086C0.849628 21.086 0.883977 21.1233 0.883977 21.1698V22.5094C0.883977 22.5555 0.849628 22.5932 0.807648 22.5932C0.765668 22.5932 0.731323 22.5559 0.731323 22.5094V21.1698C0.731323 21.1233 0.765322 21.086 0.807648 21.086Z" fill="white"/>
<path d="M0.807648 23.7657C0.849628 23.7657 0.883977 23.8031 0.883977 23.8495V25.1892C0.883977 25.2353 0.849628 25.2729 0.807648 25.2729C0.765668 25.2729 0.731323 25.2353 0.731323 25.1892V23.8495C0.731323 23.8031 0.765322 23.7657 0.807648 23.7657Z" fill="white"/>
<path d="M4.27249 14.5661H5.49337C5.53535 14.5661 5.5697 14.6034 5.5697 14.6499C5.5697 14.6959 5.5357 14.7336 5.49337 14.7336H4.27249C4.23051 14.7336 4.19617 14.6963 4.19617 14.6499C4.19617 14.6038 4.23051 14.5661 4.27249 14.5661Z" fill="white"/>
<path d="M12.1231 33.7291H13.344C13.3859 33.7291 13.4203 33.7668 13.4203 33.8128C13.4203 33.8589 13.3863 33.8966 13.344 33.8966H12.1231C12.0811 33.8966 12.0468 33.8593 12.0468 33.8128C12.0468 33.7664 12.0808 33.7291 12.1231 33.7291Z" fill="white"/>
<path d="M14.5649 33.7291H15.7857C15.8277 33.7291 15.8621 33.7668 15.8621 33.8128C15.8621 33.8589 15.8277 33.8966 15.7857 33.8966H14.5649C14.5229 33.8966 14.4885 33.8593 14.4885 33.8128C14.4885 33.7664 14.5229 33.7291 14.5649 33.7291Z" fill="white"/>
<path d="M14.0402 14.5661H15.2611C15.3031 14.5661 15.3374 14.6034 15.3374 14.6499C15.3374 14.6959 15.3031 14.7336 15.2611 14.7336H14.0402C13.9982 14.7336 13.9639 14.6963 13.9639 14.6499C13.9639 14.6038 13.9982 14.5661 14.0402 14.5661Z" fill="white"/>
<path d="M4.79703 33.7291H6.01791C6.05989 33.7291 6.09423 33.7668 6.09423 33.8128C6.09423 33.8589 6.05989 33.8966 6.01791 33.8966H4.79703C4.75505 33.8966 4.7207 33.8593 4.7207 33.8128C4.7207 33.7664 4.75505 33.7291 4.79703 33.7291Z" fill="white"/>
<path d="M16.4823 14.5661H17.7032C17.7452 14.5661 17.7795 14.6034 17.7795 14.6499C17.7795 14.6959 17.7455 14.7336 17.7032 14.7336H16.4823C16.4404 14.7336 16.406 14.6963 16.406 14.6499C16.406 14.6038 16.44 14.5661 16.4823 14.5661Z" fill="white"/>
<path d="M17.0069 33.7291H18.2277C18.2697 33.7291 18.3041 33.7668 18.3041 33.8128C18.3041 33.8589 18.2697 33.8966 18.2277 33.8966H17.0069C16.9649 33.8966 16.9305 33.8593 16.9305 33.8128C16.9305 33.7664 16.9645 33.7291 17.0069 33.7291Z" fill="white"/>
<path d="M6.71463 14.5661H7.93551C7.97749 14.5661 8.01183 14.6034 8.01183 14.6499C8.01183 14.6959 7.97749 14.7336 7.93551 14.7336H6.71463C6.67265 14.7336 6.63831 14.6963 6.63831 14.6499C6.63831 14.6038 6.6723 14.5661 6.71463 14.5661Z" fill="white"/>
<path d="M9.68094 33.7291H10.9018C10.9438 33.7291 10.9781 33.7668 10.9781 33.8128C10.9781 33.8589 10.9441 33.8966 10.9018 33.8966H9.68094C9.63896 33.8966 9.60461 33.8593 9.60461 33.8128C9.60461 33.7664 9.63896 33.7291 9.68094 33.7291Z" fill="white"/>
<path d="M7.23917 33.7291H8.46005C8.50202 33.7291 8.53637 33.7668 8.53637 33.8128C8.53637 33.8589 8.50237 33.8966 8.46005 33.8966H7.23917C7.19719 33.8966 7.16284 33.8593 7.16284 33.8128C7.16284 33.7664 7.19684 33.7291 7.23917 33.7291Z" fill="white"/>
<path d="M9.1564 14.5661H10.3773C10.4193 14.5661 10.4536 14.6034 10.4536 14.6499C10.4536 14.6959 10.4193 14.7336 10.3773 14.7336H9.1564C9.11442 14.7336 9.08008 14.6963 9.08008 14.6499C9.08008 14.6038 9.11442 14.5661 9.1564 14.5661Z" fill="white"/>
</svg>
